G04 EAGLE Gerber RS-274X export*
G75*
%MOMM*%
%FSLAX34Y34*%
%LPD*%
%INTop Copper*%
%IPPOS*%
%AMOC8*
5,1,8,0,0,1.08239X$1,22.5*%
G01*
%ADD10R,1.000000X1.100000*%
%ADD11R,1.100000X1.000000*%
%ADD12R,2.200000X0.600000*%
%ADD13R,1.200000X1.200000*%
%ADD14R,1.270000X2.540000*%
%ADD15P,1.732040X8X22.500000*%
%ADD16R,0.300000X1.300000*%
%ADD17C,0.406400*%
%ADD18C,0.756400*%
%ADD19C,0.508000*%

G36*
X226220Y492421D02*
X226220Y492421D01*
X226252Y492428D01*
X226342Y492436D01*
X246447Y496540D01*
X246478Y496552D01*
X246565Y496574D01*
X265752Y503851D01*
X265780Y503868D01*
X265862Y503904D01*
X283633Y514164D01*
X283659Y514185D01*
X283734Y514233D01*
X299629Y527211D01*
X299651Y527236D01*
X299718Y527296D01*
X313325Y542656D01*
X313343Y542683D01*
X313399Y542754D01*
X324366Y560097D01*
X324379Y560128D01*
X324423Y560206D01*
X332466Y579084D01*
X332474Y579116D01*
X332505Y579200D01*
X337416Y599124D01*
X337419Y599157D01*
X337436Y599245D01*
X339087Y619699D01*
X339084Y619731D01*
X339087Y619821D01*
X337436Y640275D01*
X337428Y640307D01*
X337416Y640396D01*
X332505Y660320D01*
X332492Y660350D01*
X332479Y660393D01*
X332474Y660418D01*
X332470Y660424D01*
X332466Y660436D01*
X324423Y679314D01*
X324405Y679342D01*
X324366Y679423D01*
X313399Y696766D01*
X313377Y696791D01*
X313328Y696860D01*
X313327Y696861D01*
X313327Y696862D01*
X313325Y696864D01*
X299718Y712224D01*
X299692Y712245D01*
X299629Y712309D01*
X283734Y725287D01*
X283706Y725303D01*
X283633Y725356D01*
X265862Y735616D01*
X265832Y735628D01*
X265752Y735669D01*
X246565Y742946D01*
X246533Y742952D01*
X246447Y742980D01*
X226342Y747084D01*
X226309Y747085D01*
X226220Y747099D01*
X205716Y747925D01*
X205684Y747921D01*
X205594Y747920D01*
X185223Y745447D01*
X185192Y745438D01*
X185103Y745422D01*
X165393Y739713D01*
X165364Y739699D01*
X165279Y739670D01*
X146740Y730873D01*
X146713Y730854D01*
X146634Y730812D01*
X129746Y719155D01*
X129722Y719132D01*
X129651Y719077D01*
X114852Y704862D01*
X114832Y704836D01*
X114770Y704771D01*
X102443Y688366D01*
X102428Y688337D01*
X102377Y688262D01*
X97663Y679281D01*
X97661Y679272D01*
X97656Y679265D01*
X97622Y679157D01*
X97586Y679047D01*
X97586Y679039D01*
X97583Y679030D01*
X97586Y678916D01*
X97587Y678801D01*
X97589Y678793D01*
X97590Y678784D01*
X97629Y678677D01*
X97666Y678568D01*
X97671Y678562D01*
X97674Y678553D01*
X97746Y678464D01*
X97815Y678373D01*
X97822Y678368D01*
X97828Y678361D01*
X97924Y678299D01*
X98019Y678235D01*
X98027Y678233D01*
X98035Y678228D01*
X98145Y678200D01*
X98256Y678170D01*
X98265Y678170D01*
X98273Y678168D01*
X98387Y678177D01*
X98502Y678184D01*
X98510Y678187D01*
X98518Y678187D01*
X98623Y678232D01*
X98730Y678275D01*
X98737Y678280D01*
X98745Y678284D01*
X98876Y678389D01*
X99402Y678915D01*
X101561Y678915D01*
X101652Y678929D01*
X101742Y678937D01*
X101772Y678949D01*
X101804Y678954D01*
X101885Y678997D01*
X101969Y679033D01*
X102001Y679059D01*
X102022Y679070D01*
X102044Y679093D01*
X102100Y679138D01*
X107749Y684787D01*
X108684Y684787D01*
X108704Y684790D01*
X108723Y684788D01*
X108825Y684810D01*
X108927Y684826D01*
X108944Y684836D01*
X108964Y684840D01*
X109053Y684893D01*
X109144Y684942D01*
X109158Y684956D01*
X109175Y684966D01*
X109242Y685045D01*
X109314Y685120D01*
X109322Y685138D01*
X109335Y685153D01*
X109374Y685249D01*
X109417Y685343D01*
X109419Y685363D01*
X109427Y685381D01*
X109445Y685548D01*
X109445Y686862D01*
X110338Y687755D01*
X112152Y687755D01*
X112172Y687758D01*
X112191Y687756D01*
X112293Y687778D01*
X112395Y687794D01*
X112412Y687804D01*
X112432Y687808D01*
X112521Y687861D01*
X112612Y687910D01*
X112626Y687924D01*
X112643Y687934D01*
X112710Y688013D01*
X112782Y688088D01*
X112790Y688106D01*
X112803Y688121D01*
X112842Y688217D01*
X112885Y688311D01*
X112887Y688331D01*
X112895Y688349D01*
X112913Y688516D01*
X112913Y690713D01*
X119177Y696977D01*
X161239Y696977D01*
X166257Y691959D01*
X166257Y689276D01*
X166260Y689256D01*
X166258Y689237D01*
X166280Y689135D01*
X166296Y689033D01*
X166306Y689016D01*
X166310Y688996D01*
X166363Y688907D01*
X166412Y688816D01*
X166426Y688802D01*
X166436Y688785D01*
X166515Y688718D01*
X166590Y688646D01*
X166608Y688638D01*
X166623Y688625D01*
X166719Y688586D01*
X166813Y688543D01*
X166833Y688541D01*
X166851Y688533D01*
X167018Y688515D01*
X168332Y688515D01*
X169225Y687622D01*
X169225Y675358D01*
X168332Y674465D01*
X157068Y674465D01*
X156175Y675358D01*
X156175Y687622D01*
X157117Y688564D01*
X157159Y688622D01*
X157209Y688674D01*
X157231Y688721D01*
X157261Y688763D01*
X157282Y688832D01*
X157312Y688897D01*
X157318Y688949D01*
X157333Y688999D01*
X157331Y689070D01*
X157339Y689141D01*
X157328Y689192D01*
X157327Y689244D01*
X157302Y689312D01*
X157287Y689382D01*
X157260Y689427D01*
X157243Y689475D01*
X157198Y689531D01*
X157161Y689593D01*
X157121Y689627D01*
X157089Y689667D01*
X157029Y689706D01*
X156974Y689753D01*
X156926Y689772D01*
X156882Y689800D01*
X156812Y689818D01*
X156746Y689845D01*
X156675Y689853D01*
X156643Y689861D01*
X156620Y689859D01*
X156579Y689863D01*
X122439Y689863D01*
X122349Y689849D01*
X122258Y689841D01*
X122228Y689829D01*
X122196Y689824D01*
X122115Y689781D01*
X122031Y689745D01*
X121999Y689719D01*
X121978Y689708D01*
X121956Y689685D01*
X121900Y689640D01*
X121314Y689054D01*
X121272Y688996D01*
X121223Y688944D01*
X121201Y688897D01*
X121171Y688855D01*
X121150Y688786D01*
X121119Y688721D01*
X121114Y688669D01*
X121098Y688619D01*
X121100Y688548D01*
X121092Y688477D01*
X121103Y688426D01*
X121105Y688374D01*
X121129Y688306D01*
X121145Y688236D01*
X121171Y688191D01*
X121189Y688143D01*
X121234Y688087D01*
X121271Y688025D01*
X121310Y687991D01*
X121343Y687951D01*
X121403Y687912D01*
X121458Y687865D01*
X121506Y687846D01*
X121550Y687818D01*
X121619Y687800D01*
X121686Y687773D01*
X121757Y687765D01*
X121788Y687757D01*
X121812Y687759D01*
X121853Y687755D01*
X122602Y687755D01*
X123495Y686862D01*
X123495Y675598D01*
X122602Y674705D01*
X110338Y674705D01*
X109571Y675473D01*
X109555Y675484D01*
X109543Y675500D01*
X109455Y675556D01*
X109371Y675616D01*
X109352Y675622D01*
X109336Y675633D01*
X109235Y675658D01*
X109136Y675688D01*
X109116Y675688D01*
X109097Y675693D01*
X108994Y675685D01*
X108890Y675682D01*
X108872Y675675D01*
X108852Y675674D01*
X108757Y675633D01*
X108659Y675598D01*
X108644Y675585D01*
X108626Y675577D01*
X108495Y675473D01*
X107130Y674108D01*
X107077Y674034D01*
X107017Y673964D01*
X107005Y673934D01*
X106986Y673908D01*
X106959Y673821D01*
X106925Y673736D01*
X106921Y673695D01*
X106914Y673673D01*
X106915Y673641D01*
X106907Y673569D01*
X106907Y671410D01*
X104149Y668652D01*
X104137Y668636D01*
X104122Y668623D01*
X104066Y668536D01*
X104005Y668452D01*
X103999Y668433D01*
X103989Y668416D01*
X103963Y668316D01*
X103933Y668217D01*
X103933Y668197D01*
X103929Y668178D01*
X103937Y668075D01*
X103939Y667971D01*
X103946Y667952D01*
X103948Y667933D01*
X103988Y667838D01*
X104024Y667740D01*
X104036Y667725D01*
X104044Y667706D01*
X104149Y667575D01*
X104821Y666904D01*
X104821Y666750D01*
X104824Y666730D01*
X104822Y666711D01*
X104844Y666609D01*
X104860Y666507D01*
X104870Y666490D01*
X104874Y666470D01*
X104927Y666381D01*
X104976Y666290D01*
X104990Y666276D01*
X105000Y666259D01*
X105079Y666192D01*
X105154Y666120D01*
X105172Y666112D01*
X105187Y666099D01*
X105283Y666060D01*
X105377Y666017D01*
X105397Y666015D01*
X105415Y666007D01*
X105582Y665989D01*
X129702Y665989D01*
X129722Y665992D01*
X129741Y665990D01*
X129843Y666012D01*
X129945Y666028D01*
X129962Y666038D01*
X129982Y666042D01*
X130071Y666095D01*
X130162Y666144D01*
X130176Y666158D01*
X130193Y666168D01*
X130260Y666247D01*
X130332Y666322D01*
X130340Y666340D01*
X130353Y666355D01*
X130392Y666451D01*
X130435Y666545D01*
X130437Y666565D01*
X130445Y666583D01*
X130463Y666750D01*
X130463Y673944D01*
X130460Y673964D01*
X130462Y673983D01*
X130440Y674085D01*
X130424Y674187D01*
X130414Y674204D01*
X130410Y674224D01*
X130357Y674313D01*
X130308Y674404D01*
X130294Y674418D01*
X130284Y674435D01*
X130205Y674502D01*
X130130Y674574D01*
X130112Y674582D01*
X130097Y674595D01*
X130001Y674634D01*
X129907Y674677D01*
X129887Y674679D01*
X129869Y674687D01*
X129702Y674705D01*
X127338Y674705D01*
X126445Y675598D01*
X126445Y686862D01*
X127338Y687755D01*
X139602Y687755D01*
X140495Y686862D01*
X140495Y675598D01*
X139602Y674705D01*
X138338Y674705D01*
X138318Y674702D01*
X138299Y674704D01*
X138197Y674682D01*
X138095Y674666D01*
X138078Y674656D01*
X138058Y674652D01*
X137969Y674599D01*
X137878Y674550D01*
X137864Y674536D01*
X137847Y674526D01*
X137780Y674447D01*
X137708Y674372D01*
X137700Y674354D01*
X137687Y674339D01*
X137648Y674242D01*
X137605Y674149D01*
X137603Y674129D01*
X137595Y674111D01*
X137577Y673944D01*
X137577Y673354D01*
X137580Y673334D01*
X137578Y673315D01*
X137600Y673213D01*
X137616Y673111D01*
X137626Y673094D01*
X137630Y673074D01*
X137683Y672985D01*
X137732Y672894D01*
X137746Y672880D01*
X137756Y672863D01*
X137835Y672796D01*
X137910Y672724D01*
X137928Y672716D01*
X137943Y672703D01*
X138039Y672664D01*
X138133Y672621D01*
X138153Y672619D01*
X138171Y672611D01*
X138338Y672593D01*
X212587Y672593D01*
X212677Y672607D01*
X212768Y672615D01*
X212798Y672627D01*
X212830Y672632D01*
X212911Y672675D01*
X212995Y672711D01*
X213027Y672737D01*
X213048Y672748D01*
X213070Y672771D01*
X213126Y672816D01*
X213966Y673656D01*
X214008Y673714D01*
X214057Y673766D01*
X214079Y673813D01*
X214109Y673855D01*
X214130Y673924D01*
X214161Y673989D01*
X214166Y674041D01*
X214182Y674091D01*
X214180Y674162D01*
X214188Y674233D01*
X214177Y674284D01*
X214175Y674336D01*
X214151Y674404D01*
X214135Y674474D01*
X214109Y674519D01*
X214091Y674567D01*
X214046Y674623D01*
X214009Y674685D01*
X213970Y674719D01*
X213937Y674759D01*
X213877Y674798D01*
X213822Y674845D01*
X213774Y674864D01*
X213730Y674892D01*
X213661Y674910D01*
X213594Y674937D01*
X213523Y674945D01*
X213492Y674953D01*
X213468Y674951D01*
X213427Y674955D01*
X213188Y674955D01*
X212295Y675848D01*
X212295Y686562D01*
X212292Y686582D01*
X212294Y686601D01*
X212272Y686703D01*
X212256Y686805D01*
X212246Y686822D01*
X212242Y686842D01*
X212189Y686931D01*
X212140Y687022D01*
X212126Y687036D01*
X212116Y687053D01*
X212037Y687120D01*
X211962Y687192D01*
X211944Y687200D01*
X211929Y687213D01*
X211833Y687252D01*
X211739Y687295D01*
X211719Y687297D01*
X211701Y687305D01*
X211534Y687323D01*
X210106Y687323D01*
X210086Y687320D01*
X210067Y687322D01*
X209965Y687300D01*
X209863Y687284D01*
X209846Y687274D01*
X209826Y687270D01*
X209737Y687217D01*
X209646Y687168D01*
X209632Y687154D01*
X209615Y687144D01*
X209548Y687065D01*
X209476Y686990D01*
X209468Y686972D01*
X209455Y686957D01*
X209416Y686861D01*
X209373Y686767D01*
X209371Y686747D01*
X209363Y686729D01*
X209345Y686562D01*
X209345Y675848D01*
X208452Y674955D01*
X196188Y674955D01*
X195295Y675848D01*
X195295Y677169D01*
X195292Y677189D01*
X195294Y677209D01*
X195272Y677310D01*
X195256Y677412D01*
X195246Y677430D01*
X195242Y677449D01*
X195189Y677538D01*
X195140Y677630D01*
X195126Y677643D01*
X195116Y677660D01*
X195037Y677728D01*
X194962Y677799D01*
X194944Y677807D01*
X194929Y677820D01*
X194833Y677859D01*
X194739Y677903D01*
X194719Y677905D01*
X194701Y677912D01*
X194534Y677931D01*
X186986Y677932D01*
X186966Y677929D01*
X186947Y677931D01*
X186846Y677909D01*
X186743Y677892D01*
X186726Y677883D01*
X186706Y677879D01*
X186617Y677826D01*
X186526Y677777D01*
X186512Y677763D01*
X186495Y677753D01*
X186428Y677674D01*
X186357Y677599D01*
X186348Y677581D01*
X186335Y677566D01*
X186296Y677469D01*
X186253Y677376D01*
X186251Y677356D01*
X186243Y677337D01*
X186225Y677171D01*
X186225Y675358D01*
X185332Y674465D01*
X174068Y674465D01*
X173175Y675358D01*
X173175Y687622D01*
X174068Y688515D01*
X181999Y688515D01*
X182069Y688526D01*
X182141Y688528D01*
X182190Y688546D01*
X182241Y688554D01*
X182305Y688588D01*
X182372Y688613D01*
X182413Y688645D01*
X182459Y688670D01*
X182508Y688722D01*
X182564Y688766D01*
X182592Y688810D01*
X182628Y688848D01*
X182658Y688913D01*
X182697Y688973D01*
X182710Y689024D01*
X182732Y689071D01*
X182740Y689142D01*
X182757Y689212D01*
X182753Y689264D01*
X182759Y689315D01*
X182744Y689386D01*
X182738Y689457D01*
X182718Y689505D01*
X182707Y689556D01*
X182670Y689617D01*
X182642Y689683D01*
X182597Y689739D01*
X182580Y689767D01*
X182563Y689782D01*
X182537Y689814D01*
X179351Y693000D01*
X179351Y697396D01*
X181556Y699601D01*
X181609Y699675D01*
X181669Y699745D01*
X181681Y699775D01*
X181700Y699801D01*
X181727Y699888D01*
X181761Y699973D01*
X181765Y700014D01*
X181772Y700036D01*
X181771Y700068D01*
X181779Y700139D01*
X181779Y703084D01*
X181776Y703104D01*
X181778Y703123D01*
X181756Y703225D01*
X181740Y703327D01*
X181730Y703344D01*
X181726Y703364D01*
X181673Y703453D01*
X181624Y703544D01*
X181610Y703558D01*
X181600Y703575D01*
X181521Y703642D01*
X181446Y703714D01*
X181428Y703722D01*
X181413Y703735D01*
X181317Y703774D01*
X181223Y703817D01*
X181203Y703819D01*
X181185Y703827D01*
X181018Y703845D01*
X169457Y703845D01*
X162044Y711258D01*
X161970Y711311D01*
X161900Y711371D01*
X161870Y711383D01*
X161844Y711402D01*
X161757Y711429D01*
X161672Y711463D01*
X161631Y711467D01*
X161609Y711474D01*
X161577Y711473D01*
X161505Y711481D01*
X159346Y711481D01*
X156237Y714590D01*
X156237Y718986D01*
X159346Y722095D01*
X163742Y722095D01*
X166851Y718986D01*
X166851Y716827D01*
X166865Y716736D01*
X166873Y716646D01*
X166885Y716616D01*
X166890Y716584D01*
X166933Y716503D01*
X166969Y716419D01*
X166995Y716387D01*
X167006Y716366D01*
X167029Y716344D01*
X167074Y716288D01*
X172180Y711182D01*
X172254Y711129D01*
X172324Y711069D01*
X172354Y711057D01*
X172380Y711038D01*
X172467Y711011D01*
X172552Y710977D01*
X172593Y710973D01*
X172615Y710966D01*
X172647Y710967D01*
X172719Y710959D01*
X181018Y710959D01*
X181038Y710962D01*
X181057Y710960D01*
X181159Y710982D01*
X181261Y710998D01*
X181278Y711008D01*
X181298Y711012D01*
X181387Y711065D01*
X181478Y711114D01*
X181492Y711128D01*
X181509Y711138D01*
X181576Y711217D01*
X181648Y711292D01*
X181656Y711310D01*
X181669Y711325D01*
X181708Y711421D01*
X181751Y711515D01*
X181753Y711535D01*
X181761Y711553D01*
X181779Y711720D01*
X181779Y714534D01*
X182672Y715427D01*
X186936Y715427D01*
X187829Y714534D01*
X187829Y709723D01*
X187843Y709632D01*
X187851Y709542D01*
X187863Y709512D01*
X187868Y709480D01*
X187911Y709399D01*
X187947Y709315D01*
X187973Y709283D01*
X187984Y709262D01*
X188007Y709240D01*
X188052Y709184D01*
X188361Y708875D01*
X188361Y705929D01*
X188052Y705620D01*
X187998Y705546D01*
X187939Y705476D01*
X187927Y705446D01*
X187908Y705420D01*
X187881Y705333D01*
X187847Y705248D01*
X187843Y705207D01*
X187836Y705185D01*
X187837Y705153D01*
X187829Y705081D01*
X187829Y701036D01*
X187832Y701016D01*
X187830Y700997D01*
X187852Y700895D01*
X187868Y700793D01*
X187878Y700776D01*
X187882Y700756D01*
X187935Y700667D01*
X187984Y700576D01*
X187998Y700562D01*
X188008Y700545D01*
X188087Y700478D01*
X188162Y700406D01*
X188180Y700398D01*
X188195Y700385D01*
X188291Y700346D01*
X188385Y700303D01*
X188405Y700301D01*
X188423Y700293D01*
X188590Y700275D01*
X190002Y700275D01*
X190022Y700278D01*
X190041Y700276D01*
X190143Y700298D01*
X190245Y700314D01*
X190262Y700324D01*
X190282Y700328D01*
X190371Y700381D01*
X190462Y700430D01*
X190476Y700444D01*
X190493Y700454D01*
X190560Y700533D01*
X190632Y700608D01*
X190640Y700626D01*
X190653Y700641D01*
X190692Y700737D01*
X190735Y700831D01*
X190737Y700851D01*
X190745Y700869D01*
X190763Y701036D01*
X190763Y706641D01*
X194804Y706641D01*
X198845Y706641D01*
X198845Y701036D01*
X198848Y701016D01*
X198846Y700997D01*
X198868Y700895D01*
X198884Y700793D01*
X198894Y700776D01*
X198898Y700756D01*
X198951Y700667D01*
X199000Y700576D01*
X199014Y700562D01*
X199024Y700545D01*
X199103Y700478D01*
X199178Y700406D01*
X199196Y700398D01*
X199211Y700385D01*
X199307Y700346D01*
X199401Y700303D01*
X199421Y700301D01*
X199439Y700293D01*
X199606Y700275D01*
X199887Y700275D01*
X199978Y700289D01*
X200068Y700297D01*
X200098Y700309D01*
X200130Y700314D01*
X200211Y700357D01*
X200295Y700393D01*
X200327Y700419D01*
X200348Y700430D01*
X200370Y700453D01*
X200426Y700498D01*
X201024Y701096D01*
X201077Y701170D01*
X201137Y701240D01*
X201149Y701270D01*
X201168Y701296D01*
X201195Y701383D01*
X201229Y701468D01*
X201233Y701509D01*
X201240Y701531D01*
X201239Y701563D01*
X201247Y701635D01*
X201247Y708875D01*
X201556Y709184D01*
X201610Y709258D01*
X201669Y709328D01*
X201681Y709358D01*
X201700Y709384D01*
X201727Y709471D01*
X201761Y709556D01*
X201765Y709597D01*
X201772Y709619D01*
X201771Y709651D01*
X201779Y709723D01*
X201779Y714534D01*
X202672Y715427D01*
X206936Y715427D01*
X207829Y714534D01*
X207829Y709723D01*
X207843Y709632D01*
X207851Y709542D01*
X207863Y709512D01*
X207868Y709480D01*
X207911Y709399D01*
X207947Y709315D01*
X207973Y709283D01*
X207984Y709262D01*
X208007Y709240D01*
X208052Y709184D01*
X208361Y708875D01*
X208361Y698373D01*
X206054Y696066D01*
X205724Y695736D01*
X205682Y695678D01*
X205633Y695626D01*
X205611Y695579D01*
X205581Y695537D01*
X205560Y695468D01*
X205529Y695403D01*
X205524Y695351D01*
X205508Y695301D01*
X205510Y695230D01*
X205502Y695159D01*
X205513Y695108D01*
X205515Y695056D01*
X205539Y694988D01*
X205555Y694918D01*
X205581Y694873D01*
X205599Y694825D01*
X205644Y694769D01*
X205681Y694707D01*
X205720Y694673D01*
X205753Y694633D01*
X205813Y694594D01*
X205868Y694547D01*
X205916Y694528D01*
X205960Y694500D01*
X206029Y694482D01*
X206096Y694455D01*
X206167Y694447D01*
X206198Y694439D01*
X206222Y694441D01*
X206263Y694437D01*
X235407Y694437D01*
X241108Y688736D01*
X241182Y688683D01*
X241252Y688623D01*
X241282Y688611D01*
X241308Y688592D01*
X241395Y688565D01*
X241480Y688531D01*
X241521Y688527D01*
X241543Y688520D01*
X241575Y688521D01*
X241647Y688513D01*
X243510Y688513D01*
X244403Y687620D01*
X244403Y675356D01*
X243510Y674463D01*
X232246Y674463D01*
X231353Y675356D01*
X231353Y686562D01*
X231350Y686582D01*
X231352Y686601D01*
X231330Y686703D01*
X231314Y686805D01*
X231304Y686822D01*
X231300Y686842D01*
X231247Y686931D01*
X231198Y687022D01*
X231184Y687036D01*
X231174Y687053D01*
X231095Y687120D01*
X231020Y687192D01*
X231002Y687200D01*
X230987Y687213D01*
X230891Y687252D01*
X230797Y687295D01*
X230777Y687297D01*
X230759Y687305D01*
X230592Y687323D01*
X227106Y687323D01*
X227086Y687320D01*
X227067Y687322D01*
X226965Y687300D01*
X226863Y687284D01*
X226846Y687274D01*
X226826Y687270D01*
X226737Y687217D01*
X226646Y687168D01*
X226632Y687154D01*
X226615Y687144D01*
X226548Y687065D01*
X226476Y686990D01*
X226468Y686972D01*
X226455Y686957D01*
X226416Y686861D01*
X226373Y686767D01*
X226371Y686747D01*
X226363Y686729D01*
X226345Y686562D01*
X226345Y675848D01*
X225452Y674955D01*
X223638Y674955D01*
X223618Y674952D01*
X223599Y674954D01*
X223497Y674932D01*
X223395Y674916D01*
X223378Y674906D01*
X223358Y674902D01*
X223269Y674849D01*
X223178Y674800D01*
X223164Y674786D01*
X223147Y674776D01*
X223080Y674697D01*
X223008Y674622D01*
X223000Y674604D01*
X222987Y674589D01*
X222948Y674493D01*
X222905Y674399D01*
X222903Y674379D01*
X222895Y674361D01*
X222877Y674194D01*
X222877Y672507D01*
X216571Y666201D01*
X216560Y666185D01*
X216544Y666173D01*
X216488Y666086D01*
X216428Y666002D01*
X216422Y665983D01*
X216411Y665966D01*
X216386Y665865D01*
X216356Y665767D01*
X216356Y665747D01*
X216351Y665727D01*
X216359Y665624D01*
X216362Y665521D01*
X216369Y665502D01*
X216370Y665482D01*
X216411Y665387D01*
X216446Y665290D01*
X216459Y665274D01*
X216467Y665256D01*
X216571Y665125D01*
X216825Y664872D01*
X216825Y663560D01*
X216828Y663540D01*
X216826Y663521D01*
X216848Y663419D01*
X216864Y663317D01*
X216874Y663300D01*
X216878Y663280D01*
X216931Y663191D01*
X216980Y663100D01*
X216994Y663086D01*
X217004Y663069D01*
X217083Y663002D01*
X217158Y662931D01*
X217176Y662922D01*
X217191Y662909D01*
X217287Y662871D01*
X217381Y662827D01*
X217401Y662825D01*
X217419Y662817D01*
X217586Y662799D01*
X221731Y662800D01*
X221734Y662801D01*
X223493Y662801D01*
X225303Y662801D01*
X225308Y662801D01*
X228684Y662801D01*
X228704Y662804D01*
X228723Y662802D01*
X228825Y662824D01*
X228927Y662840D01*
X228944Y662850D01*
X228964Y662854D01*
X229053Y662907D01*
X229144Y662956D01*
X229158Y662970D01*
X229175Y662980D01*
X229242Y663059D01*
X229314Y663134D01*
X229322Y663152D01*
X229335Y663167D01*
X229374Y663263D01*
X229417Y663357D01*
X229419Y663377D01*
X229427Y663395D01*
X229445Y663562D01*
X229445Y665122D01*
X230338Y666015D01*
X241602Y666015D01*
X242495Y665122D01*
X242495Y663308D01*
X242498Y663288D01*
X242496Y663269D01*
X242518Y663167D01*
X242534Y663065D01*
X242544Y663048D01*
X242548Y663028D01*
X242601Y662939D01*
X242650Y662848D01*
X242664Y662834D01*
X242674Y662817D01*
X242753Y662750D01*
X242828Y662678D01*
X242846Y662670D01*
X242861Y662657D01*
X242957Y662618D01*
X243051Y662575D01*
X243071Y662573D01*
X243089Y662565D01*
X243256Y662547D01*
X244197Y662547D01*
X244288Y662561D01*
X244378Y662569D01*
X244408Y662581D01*
X244440Y662586D01*
X244521Y662629D01*
X244605Y662665D01*
X244637Y662691D01*
X244658Y662702D01*
X244680Y662725D01*
X244736Y662770D01*
X251098Y669132D01*
X251151Y669206D01*
X251211Y669276D01*
X251223Y669306D01*
X251242Y669332D01*
X251269Y669419D01*
X251303Y669504D01*
X251307Y669545D01*
X251314Y669567D01*
X251313Y669599D01*
X251321Y669671D01*
X251321Y673702D01*
X251318Y673722D01*
X251320Y673741D01*
X251298Y673843D01*
X251282Y673945D01*
X251272Y673962D01*
X251268Y673982D01*
X251215Y674071D01*
X251166Y674162D01*
X251152Y674176D01*
X251142Y674193D01*
X251063Y674260D01*
X250988Y674332D01*
X250970Y674340D01*
X250955Y674353D01*
X250859Y674392D01*
X250765Y674435D01*
X250745Y674437D01*
X250727Y674445D01*
X250560Y674463D01*
X249246Y674463D01*
X248353Y675356D01*
X248353Y687620D01*
X249246Y688513D01*
X260510Y688513D01*
X261403Y687620D01*
X261403Y675356D01*
X260510Y674463D01*
X259196Y674463D01*
X259176Y674460D01*
X259157Y674462D01*
X259055Y674440D01*
X258953Y674424D01*
X258936Y674414D01*
X258916Y674410D01*
X258827Y674357D01*
X258736Y674308D01*
X258722Y674294D01*
X258705Y674284D01*
X258638Y674205D01*
X258566Y674130D01*
X258558Y674112D01*
X258545Y674097D01*
X258506Y674001D01*
X258463Y673907D01*
X258461Y673887D01*
X258453Y673869D01*
X258435Y673702D01*
X258435Y666409D01*
X250209Y658183D01*
X250197Y658167D01*
X250182Y658154D01*
X250125Y658067D01*
X250065Y657983D01*
X250059Y657964D01*
X250049Y657947D01*
X250023Y657847D01*
X249993Y657748D01*
X249993Y657728D01*
X249988Y657709D01*
X249996Y657606D01*
X249999Y657502D01*
X250006Y657483D01*
X250008Y657463D01*
X250048Y657369D01*
X250084Y657271D01*
X250096Y657255D01*
X250104Y657237D01*
X250209Y657106D01*
X252023Y655292D01*
X252097Y655239D01*
X252167Y655179D01*
X252197Y655167D01*
X252223Y655148D01*
X252310Y655121D01*
X252395Y655087D01*
X252436Y655083D01*
X252458Y655076D01*
X252490Y655077D01*
X252561Y655069D01*
X253439Y655069D01*
X253529Y655083D01*
X253620Y655091D01*
X253650Y655103D01*
X253682Y655108D01*
X253763Y655151D01*
X253846Y655187D01*
X253879Y655213D01*
X253899Y655224D01*
X253921Y655247D01*
X253977Y655292D01*
X254722Y656037D01*
X277986Y656037D01*
X278224Y655799D01*
X278282Y655757D01*
X278334Y655707D01*
X278381Y655685D01*
X278423Y655655D01*
X278492Y655634D01*
X278557Y655604D01*
X278609Y655598D01*
X278659Y655583D01*
X278730Y655585D01*
X278801Y655577D01*
X278852Y655588D01*
X278904Y655589D01*
X278972Y655614D01*
X279042Y655629D01*
X279087Y655656D01*
X279135Y655673D01*
X279191Y655718D01*
X279253Y655755D01*
X279287Y655795D01*
X279327Y655827D01*
X279366Y655887D01*
X279413Y655942D01*
X279432Y655990D01*
X279460Y656034D01*
X279478Y656103D01*
X279505Y656170D01*
X279513Y656241D01*
X279521Y656273D01*
X279519Y656296D01*
X279523Y656337D01*
X279523Y665568D01*
X279520Y665588D01*
X279522Y665607D01*
X279500Y665709D01*
X279484Y665811D01*
X279474Y665828D01*
X279470Y665848D01*
X279417Y665937D01*
X279368Y666028D01*
X279354Y666042D01*
X279344Y666059D01*
X279265Y666126D01*
X279190Y666198D01*
X279172Y666206D01*
X279157Y666219D01*
X279061Y666258D01*
X278967Y666301D01*
X278947Y666303D01*
X278929Y666311D01*
X278762Y666329D01*
X277448Y666329D01*
X276555Y667222D01*
X276555Y679486D01*
X277448Y680379D01*
X288712Y680379D01*
X289605Y679486D01*
X289605Y667222D01*
X288712Y666329D01*
X287398Y666329D01*
X287378Y666326D01*
X287359Y666328D01*
X287257Y666306D01*
X287155Y666290D01*
X287138Y666280D01*
X287118Y666276D01*
X287029Y666223D01*
X286938Y666174D01*
X286924Y666160D01*
X286907Y666150D01*
X286840Y666071D01*
X286768Y665996D01*
X286760Y665978D01*
X286747Y665963D01*
X286708Y665867D01*
X286665Y665773D01*
X286663Y665753D01*
X286655Y665735D01*
X286637Y665568D01*
X286637Y639239D01*
X282653Y635255D01*
X279269Y635255D01*
X279179Y635241D01*
X279088Y635233D01*
X279058Y635221D01*
X279026Y635216D01*
X278945Y635173D01*
X278862Y635137D01*
X278829Y635111D01*
X278809Y635100D01*
X278787Y635077D01*
X278731Y635032D01*
X277986Y634287D01*
X254722Y634287D01*
X253829Y635180D01*
X253829Y642444D01*
X254722Y643337D01*
X277986Y643337D01*
X278224Y643099D01*
X278282Y643057D01*
X278334Y643007D01*
X278381Y642985D01*
X278423Y642955D01*
X278492Y642934D01*
X278557Y642904D01*
X278609Y642898D01*
X278659Y642883D01*
X278730Y642885D01*
X278801Y642877D01*
X278852Y642888D01*
X278904Y642889D01*
X278972Y642914D01*
X279042Y642929D01*
X279087Y642956D01*
X279135Y642973D01*
X279191Y643018D01*
X279253Y643055D01*
X279287Y643095D01*
X279327Y643127D01*
X279366Y643187D01*
X279413Y643242D01*
X279432Y643290D01*
X279460Y643334D01*
X279478Y643403D01*
X279505Y643470D01*
X279513Y643541D01*
X279521Y643573D01*
X279519Y643596D01*
X279523Y643637D01*
X279523Y646687D01*
X279512Y646758D01*
X279510Y646830D01*
X279492Y646879D01*
X279484Y646930D01*
X279450Y646993D01*
X279425Y647061D01*
X279393Y647101D01*
X279368Y647147D01*
X279316Y647197D01*
X279272Y647253D01*
X279228Y647281D01*
X279190Y647317D01*
X279125Y647347D01*
X279065Y647386D01*
X279014Y647398D01*
X278967Y647420D01*
X278896Y647428D01*
X278826Y647446D01*
X278774Y647442D01*
X278723Y647447D01*
X278652Y647432D01*
X278581Y647427D01*
X278533Y647406D01*
X278482Y647395D01*
X278421Y647358D01*
X278355Y647330D01*
X278299Y647285D01*
X278271Y647269D01*
X278256Y647251D01*
X278224Y647225D01*
X277986Y646987D01*
X254722Y646987D01*
X253977Y647732D01*
X253903Y647785D01*
X253834Y647845D01*
X253804Y647857D01*
X253778Y647876D01*
X253691Y647903D01*
X253606Y647937D01*
X253565Y647941D01*
X253543Y647948D01*
X253510Y647947D01*
X253439Y647955D01*
X252281Y647955D01*
X252191Y647941D01*
X252100Y647933D01*
X252071Y647921D01*
X252039Y647916D01*
X251958Y647873D01*
X251874Y647837D01*
X251842Y647811D01*
X251821Y647800D01*
X251799Y647777D01*
X251743Y647732D01*
X250356Y646345D01*
X245960Y646345D01*
X243794Y648511D01*
X243736Y648553D01*
X243684Y648602D01*
X243637Y648624D01*
X243595Y648654D01*
X243526Y648676D01*
X243461Y648706D01*
X243409Y648711D01*
X243359Y648727D01*
X243288Y648725D01*
X243217Y648733D01*
X243166Y648722D01*
X243114Y648720D01*
X243046Y648696D01*
X242976Y648681D01*
X242931Y648654D01*
X242883Y648636D01*
X242827Y648591D01*
X242765Y648554D01*
X242731Y648515D01*
X242691Y648482D01*
X242652Y648422D01*
X242605Y648367D01*
X242586Y648319D01*
X242558Y648275D01*
X242540Y648206D01*
X242513Y648139D01*
X242505Y648068D01*
X242497Y648037D01*
X242499Y648014D01*
X242495Y647973D01*
X242495Y635710D01*
X242494Y635708D01*
X242464Y635609D01*
X242464Y635589D01*
X242459Y635569D01*
X242467Y635467D01*
X242470Y635363D01*
X242477Y635344D01*
X242478Y635324D01*
X242519Y635229D01*
X242554Y635132D01*
X242567Y635116D01*
X242575Y635098D01*
X242680Y634967D01*
X243755Y633892D01*
X243755Y629271D01*
X243766Y629201D01*
X243768Y629129D01*
X243786Y629080D01*
X243794Y629029D01*
X243828Y628965D01*
X243853Y628898D01*
X243885Y628857D01*
X243910Y628811D01*
X243962Y628762D01*
X244006Y628706D01*
X244050Y628678D01*
X244088Y628642D01*
X244153Y628612D01*
X244213Y628573D01*
X244264Y628560D01*
X244311Y628538D01*
X244382Y628530D01*
X244452Y628513D01*
X244504Y628517D01*
X244555Y628511D01*
X244626Y628526D01*
X244697Y628532D01*
X244745Y628552D01*
X244796Y628563D01*
X244857Y628600D01*
X244923Y628628D01*
X244979Y628673D01*
X245007Y628690D01*
X245022Y628707D01*
X245054Y628733D01*
X247738Y631417D01*
X252134Y631417D01*
X253280Y630271D01*
X253296Y630259D01*
X253309Y630244D01*
X253396Y630188D01*
X253480Y630127D01*
X253499Y630121D01*
X253516Y630111D01*
X253616Y630085D01*
X253715Y630055D01*
X253735Y630055D01*
X253754Y630051D01*
X253857Y630059D01*
X253961Y630061D01*
X253980Y630068D01*
X253999Y630070D01*
X254094Y630110D01*
X254192Y630146D01*
X254207Y630158D01*
X254226Y630166D01*
X254357Y630271D01*
X254722Y630637D01*
X277986Y630637D01*
X278879Y629744D01*
X278879Y622480D01*
X277986Y621587D01*
X254722Y621587D01*
X254359Y621951D01*
X254342Y621963D01*
X254330Y621978D01*
X254243Y622034D01*
X254159Y622095D01*
X254140Y622101D01*
X254123Y622111D01*
X254023Y622137D01*
X253924Y622167D01*
X253904Y622167D01*
X253885Y622171D01*
X253782Y622163D01*
X253678Y622161D01*
X253659Y622154D01*
X253639Y622152D01*
X253544Y622112D01*
X253447Y622076D01*
X253431Y622064D01*
X253413Y622056D01*
X253282Y621951D01*
X252134Y620803D01*
X247738Y620803D01*
X245054Y623487D01*
X244996Y623529D01*
X244944Y623578D01*
X244897Y623600D01*
X244855Y623630D01*
X244786Y623652D01*
X244721Y623682D01*
X244669Y623687D01*
X244619Y623703D01*
X244548Y623701D01*
X244477Y623709D01*
X244426Y623698D01*
X244374Y623696D01*
X244306Y623672D01*
X244236Y623657D01*
X244191Y623630D01*
X244143Y623612D01*
X244087Y623567D01*
X244025Y623530D01*
X243991Y623491D01*
X243951Y623458D01*
X243912Y623398D01*
X243865Y623343D01*
X243846Y623295D01*
X243818Y623251D01*
X243800Y623182D01*
X243773Y623115D01*
X243765Y623044D01*
X243757Y623013D01*
X243759Y622990D01*
X243755Y622949D01*
X243755Y622628D01*
X242862Y621735D01*
X230598Y621735D01*
X229705Y622628D01*
X229705Y633892D01*
X230020Y634207D01*
X230032Y634223D01*
X230048Y634235D01*
X230104Y634323D01*
X230164Y634406D01*
X230170Y634425D01*
X230181Y634442D01*
X230206Y634543D01*
X230236Y634642D01*
X230236Y634661D01*
X230241Y634681D01*
X230233Y634784D01*
X230230Y634887D01*
X230223Y634906D01*
X230222Y634926D01*
X230181Y635021D01*
X230146Y635118D01*
X230133Y635134D01*
X230125Y635152D01*
X230020Y635283D01*
X229445Y635858D01*
X229445Y637925D01*
X229442Y637945D01*
X229444Y637965D01*
X229422Y638066D01*
X229406Y638168D01*
X229396Y638185D01*
X229392Y638205D01*
X229339Y638294D01*
X229290Y638385D01*
X229276Y638399D01*
X229266Y638416D01*
X229187Y638483D01*
X229112Y638554D01*
X229094Y638563D01*
X229079Y638576D01*
X228983Y638614D01*
X228889Y638658D01*
X228869Y638660D01*
X228851Y638668D01*
X228684Y638686D01*
X217586Y638684D01*
X217566Y638681D01*
X217547Y638683D01*
X217445Y638661D01*
X217343Y638645D01*
X217326Y638635D01*
X217306Y638631D01*
X217217Y638578D01*
X217126Y638530D01*
X217112Y638515D01*
X217095Y638505D01*
X217028Y638426D01*
X216956Y638351D01*
X216948Y638333D01*
X216935Y638318D01*
X216896Y638222D01*
X216853Y638128D01*
X216851Y638108D01*
X216843Y638090D01*
X216825Y637923D01*
X216825Y636778D01*
X216828Y636758D01*
X216826Y636739D01*
X216848Y636637D01*
X216864Y636535D01*
X216874Y636518D01*
X216878Y636498D01*
X216931Y636409D01*
X216980Y636318D01*
X216994Y636304D01*
X217004Y636287D01*
X217083Y636220D01*
X217158Y636148D01*
X217176Y636140D01*
X217191Y636127D01*
X217287Y636088D01*
X217381Y636045D01*
X217401Y636043D01*
X217419Y636035D01*
X217586Y636017D01*
X219151Y636017D01*
X227077Y628091D01*
X227077Y606603D01*
X221087Y600613D01*
X221076Y600597D01*
X221060Y600585D01*
X221004Y600497D01*
X220944Y600414D01*
X220938Y600395D01*
X220927Y600378D01*
X220902Y600277D01*
X220871Y600178D01*
X220872Y600159D01*
X220867Y600139D01*
X220875Y600036D01*
X220878Y599933D01*
X220885Y599914D01*
X220886Y599894D01*
X220927Y599799D01*
X220962Y599702D01*
X220975Y599686D01*
X220982Y599668D01*
X221087Y599537D01*
X232665Y587959D01*
X232665Y586431D01*
X232679Y586341D01*
X232687Y586250D01*
X232699Y586221D01*
X232704Y586189D01*
X232747Y586108D01*
X232783Y586024D01*
X232809Y585992D01*
X232820Y585971D01*
X232843Y585949D01*
X232888Y585893D01*
X234415Y584366D01*
X234415Y579970D01*
X231563Y577118D01*
X231521Y577060D01*
X231472Y577008D01*
X231450Y576961D01*
X231420Y576919D01*
X231398Y576850D01*
X231368Y576785D01*
X231363Y576733D01*
X231347Y576683D01*
X231349Y576612D01*
X231341Y576541D01*
X231352Y576490D01*
X231354Y576438D01*
X231378Y576370D01*
X231393Y576300D01*
X231420Y576255D01*
X231438Y576207D01*
X231483Y576151D01*
X231520Y576089D01*
X231559Y576055D01*
X231592Y576015D01*
X231652Y575976D01*
X231707Y575929D01*
X231755Y575910D01*
X231799Y575882D01*
X231868Y575864D01*
X231935Y575837D01*
X232006Y575829D01*
X232037Y575821D01*
X232060Y575823D01*
X232101Y575819D01*
X243829Y575819D01*
X243920Y575833D01*
X244010Y575841D01*
X244040Y575853D01*
X244072Y575858D01*
X244153Y575901D01*
X244237Y575937D01*
X244269Y575963D01*
X244290Y575974D01*
X244312Y575997D01*
X244368Y576042D01*
X247172Y578846D01*
X247225Y578920D01*
X247285Y578990D01*
X247297Y579020D01*
X247316Y579046D01*
X247343Y579133D01*
X247377Y579218D01*
X247381Y579259D01*
X247388Y579281D01*
X247387Y579313D01*
X247395Y579385D01*
X247395Y604509D01*
X247381Y604600D01*
X247373Y604690D01*
X247361Y604720D01*
X247356Y604752D01*
X247313Y604833D01*
X247277Y604917D01*
X247251Y604949D01*
X247240Y604970D01*
X247217Y604992D01*
X247172Y605048D01*
X245054Y607166D01*
X244996Y607208D01*
X244944Y607257D01*
X244897Y607279D01*
X244855Y607309D01*
X244786Y607330D01*
X244721Y607361D01*
X244669Y607366D01*
X244619Y607382D01*
X244548Y607380D01*
X244477Y607388D01*
X244426Y607377D01*
X244374Y607375D01*
X244306Y607351D01*
X244236Y607335D01*
X244191Y607309D01*
X244143Y607291D01*
X244087Y607246D01*
X244025Y607209D01*
X243991Y607170D01*
X243951Y607137D01*
X243912Y607077D01*
X243865Y607022D01*
X243846Y606974D01*
X243818Y606930D01*
X243800Y606861D01*
X243773Y606794D01*
X243765Y606723D01*
X243757Y606692D01*
X243759Y606668D01*
X243755Y606627D01*
X243755Y605628D01*
X242862Y604735D01*
X230598Y604735D01*
X229705Y605628D01*
X229705Y616892D01*
X230598Y617785D01*
X242862Y617785D01*
X243755Y616892D01*
X243755Y615578D01*
X243758Y615558D01*
X243756Y615539D01*
X243778Y615437D01*
X243794Y615335D01*
X243804Y615318D01*
X243808Y615298D01*
X243861Y615209D01*
X243910Y615118D01*
X243924Y615104D01*
X243934Y615087D01*
X244013Y615020D01*
X244088Y614948D01*
X244106Y614940D01*
X244121Y614927D01*
X244217Y614888D01*
X244311Y614845D01*
X244331Y614843D01*
X244349Y614835D01*
X244516Y614817D01*
X247463Y614817D01*
X252202Y610078D01*
X252530Y609750D01*
X252588Y609708D01*
X252640Y609659D01*
X252687Y609637D01*
X252729Y609607D01*
X252798Y609586D01*
X252863Y609555D01*
X252915Y609550D01*
X252965Y609534D01*
X253036Y609536D01*
X253107Y609528D01*
X253158Y609539D01*
X253210Y609541D01*
X253278Y609565D01*
X253348Y609581D01*
X253393Y609607D01*
X253441Y609625D01*
X253497Y609670D01*
X253559Y609707D01*
X253593Y609746D01*
X253633Y609779D01*
X253672Y609839D01*
X253719Y609894D01*
X253738Y609942D01*
X253766Y609986D01*
X253784Y610055D01*
X253811Y610122D01*
X253819Y610193D01*
X253827Y610224D01*
X253825Y610248D01*
X253829Y610289D01*
X253829Y617044D01*
X254722Y617937D01*
X277986Y617937D01*
X278879Y617044D01*
X278879Y609780D01*
X277986Y608887D01*
X269998Y608887D01*
X269978Y608884D01*
X269959Y608886D01*
X269857Y608864D01*
X269755Y608848D01*
X269738Y608838D01*
X269718Y608834D01*
X269629Y608781D01*
X269538Y608732D01*
X269524Y608718D01*
X269507Y608708D01*
X269440Y608629D01*
X269368Y608554D01*
X269360Y608536D01*
X269347Y608521D01*
X269308Y608425D01*
X269265Y608331D01*
X269263Y608311D01*
X269255Y608293D01*
X269237Y608126D01*
X269237Y598674D01*
X269240Y598654D01*
X269238Y598635D01*
X269260Y598533D01*
X269276Y598431D01*
X269286Y598414D01*
X269290Y598394D01*
X269343Y598305D01*
X269392Y598214D01*
X269406Y598200D01*
X269416Y598183D01*
X269495Y598116D01*
X269570Y598044D01*
X269588Y598036D01*
X269603Y598023D01*
X269699Y597984D01*
X269793Y597941D01*
X269813Y597939D01*
X269831Y597931D01*
X269998Y597913D01*
X272662Y597913D01*
X273555Y597020D01*
X273555Y570356D01*
X272662Y569463D01*
X258698Y569463D01*
X257805Y570356D01*
X257805Y597020D01*
X258698Y597913D01*
X261362Y597913D01*
X261382Y597916D01*
X261401Y597914D01*
X261503Y597936D01*
X261605Y597952D01*
X261622Y597962D01*
X261642Y597966D01*
X261731Y598019D01*
X261822Y598068D01*
X261836Y598082D01*
X261853Y598092D01*
X261920Y598171D01*
X261992Y598246D01*
X262000Y598264D01*
X262013Y598279D01*
X262052Y598375D01*
X262095Y598469D01*
X262097Y598489D01*
X262105Y598507D01*
X262123Y598674D01*
X262123Y608126D01*
X262120Y608146D01*
X262122Y608165D01*
X262100Y608267D01*
X262084Y608369D01*
X262074Y608386D01*
X262070Y608406D01*
X262017Y608495D01*
X261968Y608586D01*
X261954Y608600D01*
X261944Y608617D01*
X261865Y608684D01*
X261790Y608756D01*
X261772Y608764D01*
X261757Y608777D01*
X261661Y608816D01*
X261567Y608859D01*
X261547Y608861D01*
X261529Y608869D01*
X261362Y608887D01*
X255231Y608887D01*
X255160Y608876D01*
X255088Y608874D01*
X255039Y608856D01*
X254988Y608848D01*
X254924Y608814D01*
X254857Y608789D01*
X254816Y608757D01*
X254770Y608732D01*
X254721Y608680D01*
X254665Y608635D01*
X254637Y608592D01*
X254601Y608554D01*
X254571Y608489D01*
X254532Y608428D01*
X254519Y608378D01*
X254497Y608331D01*
X254489Y608260D01*
X254472Y608190D01*
X254476Y608138D01*
X254470Y608087D01*
X254486Y608016D01*
X254491Y607945D01*
X254509Y607904D01*
X254509Y576123D01*
X251158Y572772D01*
X251116Y572714D01*
X251067Y572662D01*
X251045Y572615D01*
X251015Y572573D01*
X250994Y572504D01*
X250963Y572439D01*
X250958Y572387D01*
X250942Y572337D01*
X250944Y572266D01*
X250936Y572195D01*
X250947Y572144D01*
X250949Y572092D01*
X250973Y572024D01*
X250989Y571954D01*
X251015Y571909D01*
X251033Y571861D01*
X251078Y571805D01*
X251115Y571743D01*
X251154Y571709D01*
X251187Y571669D01*
X251247Y571630D01*
X251302Y571583D01*
X251350Y571564D01*
X251394Y571536D01*
X251463Y571518D01*
X251530Y571491D01*
X251601Y571483D01*
X251632Y571475D01*
X251656Y571477D01*
X251697Y571473D01*
X254166Y571473D01*
X257275Y568364D01*
X257275Y563968D01*
X254166Y560859D01*
X252007Y560859D01*
X251916Y560845D01*
X251826Y560837D01*
X251811Y560831D01*
X216353Y560831D01*
X216283Y560820D01*
X216211Y560818D01*
X216162Y560800D01*
X216111Y560792D01*
X216047Y560758D01*
X215980Y560733D01*
X215939Y560701D01*
X215893Y560676D01*
X215844Y560624D01*
X215788Y560580D01*
X215760Y560536D01*
X215724Y560498D01*
X215694Y560433D01*
X215655Y560373D01*
X215642Y560322D01*
X215620Y560275D01*
X215612Y560204D01*
X215595Y560134D01*
X215599Y560082D01*
X215593Y560031D01*
X215608Y559960D01*
X215614Y559889D01*
X215634Y559841D01*
X215645Y559790D01*
X215682Y559729D01*
X215710Y559663D01*
X215755Y559607D01*
X215772Y559579D01*
X215789Y559564D01*
X215815Y559532D01*
X217651Y557696D01*
X217651Y553300D01*
X216803Y552452D01*
X216761Y552394D01*
X216712Y552342D01*
X216690Y552295D01*
X216660Y552253D01*
X216638Y552184D01*
X216608Y552119D01*
X216603Y552067D01*
X216587Y552017D01*
X216589Y551946D01*
X216581Y551875D01*
X216592Y551824D01*
X216594Y551772D01*
X216618Y551704D01*
X216633Y551634D01*
X216660Y551589D01*
X216678Y551541D01*
X216723Y551485D01*
X216760Y551423D01*
X216799Y551389D01*
X216832Y551349D01*
X216892Y551310D01*
X216947Y551263D01*
X216995Y551244D01*
X217039Y551216D01*
X217108Y551198D01*
X217175Y551171D01*
X217246Y551163D01*
X217277Y551155D01*
X217300Y551157D01*
X217341Y551153D01*
X218655Y551153D01*
X218746Y551167D01*
X218836Y551175D01*
X218866Y551187D01*
X218898Y551192D01*
X218979Y551235D01*
X219063Y551271D01*
X219095Y551297D01*
X219116Y551308D01*
X219138Y551331D01*
X219194Y551376D01*
X223321Y555503D01*
X225516Y555503D01*
X225536Y555506D01*
X225555Y555504D01*
X225657Y555526D01*
X225759Y555542D01*
X225776Y555552D01*
X225796Y555556D01*
X225885Y555609D01*
X225976Y555658D01*
X225990Y555672D01*
X226007Y555682D01*
X226074Y555761D01*
X226146Y555836D01*
X226154Y555854D01*
X226167Y555869D01*
X226206Y555965D01*
X226249Y556059D01*
X226251Y556079D01*
X226259Y556097D01*
X226277Y556264D01*
X226277Y558078D01*
X227170Y558971D01*
X238434Y558971D01*
X239327Y558078D01*
X239327Y545814D01*
X238434Y544921D01*
X227170Y544921D01*
X226277Y545814D01*
X226277Y546561D01*
X226266Y546632D01*
X226264Y546704D01*
X226246Y546753D01*
X226238Y546804D01*
X226204Y546868D01*
X226179Y546935D01*
X226147Y546976D01*
X226122Y547022D01*
X226070Y547071D01*
X226026Y547127D01*
X225982Y547155D01*
X225944Y547191D01*
X225879Y547221D01*
X225819Y547260D01*
X225768Y547273D01*
X225721Y547295D01*
X225650Y547303D01*
X225580Y547320D01*
X225528Y547316D01*
X225477Y547322D01*
X225406Y547306D01*
X225335Y547301D01*
X225287Y547281D01*
X225236Y547269D01*
X225175Y547233D01*
X225109Y547205D01*
X225053Y547160D01*
X225025Y547143D01*
X225010Y547125D01*
X224978Y547100D01*
X224224Y546346D01*
X224171Y546272D01*
X224111Y546202D01*
X224099Y546172D01*
X224080Y546146D01*
X224053Y546059D01*
X224019Y545974D01*
X224015Y545933D01*
X224008Y545911D01*
X224009Y545879D01*
X224001Y545807D01*
X224001Y543648D01*
X222049Y541696D01*
X222007Y541638D01*
X221958Y541586D01*
X221936Y541539D01*
X221906Y541497D01*
X221884Y541428D01*
X221854Y541363D01*
X221849Y541311D01*
X221833Y541261D01*
X221835Y541190D01*
X221827Y541119D01*
X221838Y541068D01*
X221840Y541016D01*
X221864Y540948D01*
X221879Y540878D01*
X221906Y540833D01*
X221924Y540785D01*
X221969Y540729D01*
X222006Y540667D01*
X222045Y540633D01*
X222078Y540593D01*
X222138Y540554D01*
X222193Y540507D01*
X222241Y540488D01*
X222285Y540460D01*
X222354Y540442D01*
X222421Y540415D01*
X222492Y540407D01*
X222523Y540399D01*
X222546Y540401D01*
X222587Y540397D01*
X226174Y540397D01*
X227067Y539504D01*
X227067Y534693D01*
X227081Y534602D01*
X227089Y534512D01*
X227101Y534482D01*
X227106Y534450D01*
X227149Y534369D01*
X227185Y534285D01*
X227211Y534253D01*
X227222Y534232D01*
X227245Y534210D01*
X227290Y534154D01*
X227599Y533845D01*
X227599Y530696D01*
X227599Y530695D01*
X227592Y530673D01*
X227593Y530641D01*
X227585Y530569D01*
X227585Y514549D01*
X227599Y514459D01*
X227607Y514368D01*
X227619Y514339D01*
X227624Y514307D01*
X227667Y514226D01*
X227703Y514142D01*
X227729Y514110D01*
X227740Y514089D01*
X227763Y514067D01*
X227808Y514011D01*
X229335Y512484D01*
X229335Y508088D01*
X226226Y504979D01*
X221830Y504979D01*
X218721Y508088D01*
X218721Y512081D01*
X218710Y512152D01*
X218708Y512224D01*
X218690Y512273D01*
X218682Y512324D01*
X218648Y512388D01*
X218623Y512455D01*
X218591Y512496D01*
X218566Y512542D01*
X218514Y512591D01*
X218470Y512647D01*
X218426Y512675D01*
X218388Y512711D01*
X218323Y512741D01*
X218263Y512780D01*
X218212Y512793D01*
X218165Y512815D01*
X218094Y512823D01*
X218024Y512840D01*
X217972Y512836D01*
X217921Y512842D01*
X217850Y512826D01*
X217779Y512821D01*
X217731Y512801D01*
X217680Y512789D01*
X217619Y512753D01*
X217553Y512725D01*
X217497Y512680D01*
X217469Y512663D01*
X217454Y512645D01*
X217422Y512620D01*
X215372Y510570D01*
X213556Y508754D01*
X213503Y508680D01*
X213443Y508610D01*
X213431Y508580D01*
X213412Y508554D01*
X213385Y508467D01*
X213351Y508382D01*
X213348Y508358D01*
X210224Y505233D01*
X205828Y505233D01*
X202719Y508342D01*
X202719Y512738D01*
X205828Y515847D01*
X209804Y515847D01*
X209824Y515850D01*
X209843Y515848D01*
X209945Y515870D01*
X210047Y515886D01*
X210064Y515896D01*
X210084Y515900D01*
X210173Y515953D01*
X210264Y516002D01*
X210278Y516016D01*
X210295Y516026D01*
X210362Y516105D01*
X210434Y516180D01*
X210442Y516198D01*
X210455Y516213D01*
X210494Y516309D01*
X210537Y516403D01*
X210539Y516423D01*
X210547Y516441D01*
X210565Y516608D01*
X210565Y530503D01*
X210551Y530594D01*
X210543Y530684D01*
X210531Y530714D01*
X210526Y530746D01*
X210485Y530822D01*
X210485Y533845D01*
X210794Y534154D01*
X210847Y534228D01*
X210907Y534298D01*
X210919Y534328D01*
X210938Y534354D01*
X210965Y534441D01*
X210999Y534526D01*
X211003Y534567D01*
X211010Y534589D01*
X211009Y534621D01*
X211017Y534693D01*
X211017Y539504D01*
X211910Y540397D01*
X214801Y540397D01*
X214871Y540408D01*
X214943Y540410D01*
X214992Y540428D01*
X215043Y540436D01*
X215107Y540470D01*
X215174Y540495D01*
X215215Y540527D01*
X215261Y540552D01*
X215310Y540604D01*
X215366Y540648D01*
X215394Y540692D01*
X215430Y540730D01*
X215460Y540795D01*
X215499Y540855D01*
X215512Y540906D01*
X215534Y540953D01*
X215542Y541024D01*
X215559Y541094D01*
X215555Y541146D01*
X215561Y541197D01*
X215546Y541268D01*
X215540Y541339D01*
X215520Y541387D01*
X215509Y541438D01*
X215472Y541499D01*
X215444Y541565D01*
X215399Y541621D01*
X215382Y541649D01*
X215365Y541664D01*
X215339Y541696D01*
X213387Y543648D01*
X213387Y548044D01*
X214235Y548892D01*
X214277Y548950D01*
X214326Y549002D01*
X214348Y549049D01*
X214378Y549091D01*
X214400Y549160D01*
X214430Y549225D01*
X214435Y549277D01*
X214451Y549327D01*
X214449Y549398D01*
X214457Y549469D01*
X214446Y549520D01*
X214444Y549572D01*
X214420Y549640D01*
X214405Y549710D01*
X214378Y549755D01*
X214360Y549803D01*
X214315Y549859D01*
X214278Y549921D01*
X214239Y549955D01*
X214206Y549995D01*
X214146Y550034D01*
X214091Y550081D01*
X214043Y550100D01*
X213999Y550128D01*
X213930Y550146D01*
X213863Y550173D01*
X213792Y550181D01*
X213761Y550189D01*
X213738Y550187D01*
X213697Y550191D01*
X212383Y550191D01*
X212292Y550177D01*
X212202Y550169D01*
X212172Y550157D01*
X212140Y550152D01*
X212059Y550109D01*
X211975Y550073D01*
X211943Y550047D01*
X211922Y550036D01*
X211900Y550013D01*
X211844Y549968D01*
X210267Y548391D01*
X206544Y548391D01*
X206524Y548388D01*
X206505Y548390D01*
X206403Y548368D01*
X206301Y548352D01*
X206284Y548342D01*
X206264Y548338D01*
X206175Y548285D01*
X206084Y548236D01*
X206070Y548222D01*
X206053Y548212D01*
X205986Y548133D01*
X205914Y548058D01*
X205906Y548040D01*
X205893Y548025D01*
X205854Y547929D01*
X205811Y547835D01*
X205809Y547815D01*
X205801Y547797D01*
X205783Y547630D01*
X205783Y545816D01*
X204890Y544923D01*
X193626Y544923D01*
X192733Y545816D01*
X192733Y558080D01*
X193626Y558973D01*
X204890Y558973D01*
X205822Y558040D01*
X205822Y558037D01*
X205856Y557973D01*
X205881Y557906D01*
X205913Y557865D01*
X205938Y557819D01*
X205989Y557770D01*
X206034Y557714D01*
X206078Y557686D01*
X206116Y557650D01*
X206181Y557620D01*
X206241Y557581D01*
X206292Y557568D01*
X206339Y557546D01*
X206410Y557538D01*
X206480Y557521D01*
X206532Y557525D01*
X206583Y557519D01*
X206654Y557534D01*
X206725Y557540D01*
X206773Y557560D01*
X206824Y557571D01*
X206885Y557608D01*
X206951Y557636D01*
X207007Y557681D01*
X207035Y557698D01*
X207050Y557715D01*
X207082Y557741D01*
X208873Y559532D01*
X208915Y559590D01*
X208964Y559642D01*
X208986Y559689D01*
X209016Y559731D01*
X209037Y559800D01*
X209068Y559865D01*
X209073Y559917D01*
X209089Y559967D01*
X209087Y560038D01*
X209095Y560109D01*
X209084Y560160D01*
X209082Y560212D01*
X209058Y560280D01*
X209043Y560350D01*
X209016Y560394D01*
X208998Y560443D01*
X208953Y560499D01*
X208916Y560561D01*
X208877Y560595D01*
X208844Y560635D01*
X208784Y560674D01*
X208729Y560721D01*
X208681Y560740D01*
X208637Y560768D01*
X208568Y560786D01*
X208501Y560813D01*
X208430Y560821D01*
X208399Y560829D01*
X208376Y560827D01*
X208335Y560831D01*
X142707Y560831D01*
X140400Y563138D01*
X132770Y570768D01*
X130463Y573075D01*
X130463Y576374D01*
X130460Y576394D01*
X130462Y576413D01*
X130440Y576515D01*
X130424Y576617D01*
X130414Y576634D01*
X130410Y576654D01*
X130357Y576743D01*
X130308Y576834D01*
X130294Y576848D01*
X130284Y576865D01*
X130205Y576932D01*
X130130Y577004D01*
X130112Y577012D01*
X130097Y577025D01*
X130001Y577064D01*
X129907Y577107D01*
X129887Y577109D01*
X129869Y577117D01*
X129702Y577135D01*
X122388Y577135D01*
X122273Y577250D01*
X122199Y577303D01*
X122130Y577363D01*
X122100Y577375D01*
X122074Y577394D01*
X121987Y577421D01*
X121902Y577455D01*
X121861Y577459D01*
X121839Y577466D01*
X121806Y577465D01*
X121735Y577473D01*
X109646Y577473D01*
X109626Y577470D01*
X109607Y577472D01*
X109505Y577450D01*
X109403Y577434D01*
X109386Y577424D01*
X109366Y577420D01*
X109277Y577367D01*
X109186Y577318D01*
X109172Y577304D01*
X109155Y577294D01*
X109088Y577215D01*
X109016Y577140D01*
X109008Y577122D01*
X108995Y577107D01*
X108956Y577011D01*
X108913Y576917D01*
X108911Y576897D01*
X108903Y576879D01*
X108885Y576712D01*
X108885Y575398D01*
X107992Y574505D01*
X95728Y574505D01*
X94835Y575398D01*
X94835Y586662D01*
X95728Y587555D01*
X107992Y587555D01*
X108885Y586662D01*
X108885Y585348D01*
X108888Y585328D01*
X108886Y585309D01*
X108908Y585207D01*
X108924Y585105D01*
X108934Y585088D01*
X108938Y585068D01*
X108991Y584979D01*
X109040Y584888D01*
X109054Y584874D01*
X109064Y584857D01*
X109143Y584790D01*
X109218Y584718D01*
X109236Y584710D01*
X109251Y584697D01*
X109347Y584658D01*
X109441Y584615D01*
X109461Y584613D01*
X109479Y584605D01*
X109646Y584587D01*
X120734Y584587D01*
X120754Y584590D01*
X120773Y584588D01*
X120875Y584610D01*
X120977Y584626D01*
X120994Y584636D01*
X121014Y584640D01*
X121103Y584693D01*
X121194Y584742D01*
X121208Y584756D01*
X121225Y584766D01*
X121292Y584845D01*
X121364Y584920D01*
X121372Y584938D01*
X121385Y584953D01*
X121424Y585049D01*
X121467Y585143D01*
X121469Y585163D01*
X121477Y585181D01*
X121488Y585285D01*
X122388Y586185D01*
X145652Y586185D01*
X146545Y585292D01*
X146545Y578028D01*
X145652Y577135D01*
X138338Y577135D01*
X138318Y577132D01*
X138299Y577134D01*
X138197Y577112D01*
X138095Y577096D01*
X138078Y577086D01*
X138058Y577082D01*
X137969Y577029D01*
X137878Y576980D01*
X137864Y576966D01*
X137847Y576956D01*
X137780Y576877D01*
X137708Y576802D01*
X137700Y576784D01*
X137687Y576769D01*
X137648Y576673D01*
X137605Y576579D01*
X137603Y576559D01*
X137595Y576541D01*
X137580Y576402D01*
X137579Y576401D01*
X137580Y576399D01*
X137577Y576374D01*
X137577Y576337D01*
X137591Y576246D01*
X137599Y576156D01*
X137611Y576126D01*
X137616Y576094D01*
X137659Y576013D01*
X137695Y575929D01*
X137721Y575897D01*
X137732Y575876D01*
X137755Y575854D01*
X137800Y575798D01*
X145430Y568168D01*
X145504Y568115D01*
X145574Y568055D01*
X145604Y568043D01*
X145630Y568024D01*
X145717Y567997D01*
X145802Y567963D01*
X145843Y567959D01*
X145865Y567952D01*
X145897Y567953D01*
X145969Y567945D01*
X204779Y567945D01*
X204849Y567956D01*
X204921Y567958D01*
X204970Y567976D01*
X205021Y567984D01*
X205085Y568018D01*
X205152Y568043D01*
X205193Y568075D01*
X205239Y568100D01*
X205288Y568152D01*
X205344Y568196D01*
X205372Y568240D01*
X205408Y568278D01*
X205438Y568343D01*
X205477Y568403D01*
X205490Y568454D01*
X205512Y568501D01*
X205520Y568572D01*
X205537Y568642D01*
X205533Y568694D01*
X205539Y568745D01*
X205524Y568816D01*
X205518Y568887D01*
X205498Y568935D01*
X205487Y568986D01*
X205450Y569047D01*
X205422Y569113D01*
X205377Y569169D01*
X205360Y569197D01*
X205343Y569212D01*
X205317Y569244D01*
X204497Y570064D01*
X204497Y574460D01*
X205602Y575565D01*
X205614Y575581D01*
X205629Y575594D01*
X205659Y575639D01*
X205683Y575665D01*
X205700Y575701D01*
X205746Y575765D01*
X205752Y575784D01*
X205762Y575801D01*
X205782Y575877D01*
X205787Y575888D01*
X205788Y575903D01*
X205818Y576000D01*
X205818Y576020D01*
X205822Y576039D01*
X205814Y576142D01*
X205812Y576246D01*
X205805Y576265D01*
X205803Y576284D01*
X205763Y576379D01*
X205727Y576477D01*
X205715Y576492D01*
X205707Y576511D01*
X205602Y576642D01*
X204871Y577372D01*
X204797Y577425D01*
X204728Y577485D01*
X204698Y577497D01*
X204672Y577516D01*
X204585Y577543D01*
X204500Y577577D01*
X204459Y577581D01*
X204437Y577588D01*
X204404Y577587D01*
X204333Y577595D01*
X198427Y577595D01*
X198337Y577581D01*
X198246Y577573D01*
X198216Y577561D01*
X198184Y577556D01*
X198103Y577513D01*
X198020Y577477D01*
X197987Y577451D01*
X197967Y577440D01*
X197945Y577417D01*
X197889Y577372D01*
X197652Y577135D01*
X174388Y577135D01*
X173495Y578028D01*
X173495Y585292D01*
X174388Y586185D01*
X181194Y586185D01*
X181214Y586188D01*
X181233Y586186D01*
X181335Y586208D01*
X181437Y586224D01*
X181454Y586234D01*
X181474Y586238D01*
X181563Y586291D01*
X181654Y586340D01*
X181668Y586354D01*
X181685Y586364D01*
X181752Y586443D01*
X181824Y586518D01*
X181832Y586536D01*
X181845Y586551D01*
X181884Y586647D01*
X181927Y586741D01*
X181929Y586761D01*
X181937Y586779D01*
X181955Y586946D01*
X181955Y589074D01*
X181952Y589094D01*
X181954Y589113D01*
X181932Y589215D01*
X181916Y589317D01*
X181906Y589334D01*
X181902Y589354D01*
X181849Y589443D01*
X181800Y589534D01*
X181786Y589548D01*
X181776Y589565D01*
X181697Y589632D01*
X181622Y589704D01*
X181604Y589712D01*
X181589Y589725D01*
X181493Y589764D01*
X181399Y589807D01*
X181379Y589809D01*
X181361Y589817D01*
X181194Y589835D01*
X174388Y589835D01*
X173495Y590728D01*
X173495Y597992D01*
X174388Y598885D01*
X197652Y598885D01*
X198545Y597992D01*
X198545Y590728D01*
X197652Y589835D01*
X190846Y589835D01*
X190826Y589832D01*
X190807Y589834D01*
X190705Y589812D01*
X190603Y589796D01*
X190586Y589786D01*
X190566Y589782D01*
X190477Y589729D01*
X190386Y589680D01*
X190372Y589666D01*
X190355Y589656D01*
X190288Y589577D01*
X190216Y589502D01*
X190208Y589484D01*
X190195Y589469D01*
X190156Y589373D01*
X190113Y589279D01*
X190111Y589259D01*
X190103Y589241D01*
X190085Y589074D01*
X190085Y586946D01*
X190088Y586926D01*
X190086Y586907D01*
X190108Y586805D01*
X190124Y586703D01*
X190134Y586686D01*
X190138Y586666D01*
X190191Y586577D01*
X190240Y586486D01*
X190254Y586472D01*
X190264Y586455D01*
X190343Y586388D01*
X190418Y586316D01*
X190436Y586308D01*
X190451Y586295D01*
X190547Y586256D01*
X190641Y586213D01*
X190661Y586211D01*
X190679Y586203D01*
X190846Y586185D01*
X197652Y586185D01*
X197889Y585948D01*
X197963Y585895D01*
X198032Y585835D01*
X198062Y585823D01*
X198088Y585804D01*
X198175Y585777D01*
X198260Y585743D01*
X198301Y585739D01*
X198323Y585732D01*
X198356Y585733D01*
X198427Y585725D01*
X204294Y585725D01*
X204314Y585728D01*
X204333Y585726D01*
X204435Y585748D01*
X204537Y585764D01*
X204554Y585774D01*
X204574Y585778D01*
X204663Y585831D01*
X204754Y585880D01*
X204768Y585894D01*
X204785Y585904D01*
X204852Y585983D01*
X204924Y586058D01*
X204932Y586076D01*
X204945Y586091D01*
X204984Y586187D01*
X205027Y586281D01*
X205029Y586301D01*
X205037Y586319D01*
X205055Y586486D01*
X205055Y589452D01*
X205948Y590345D01*
X217212Y590345D01*
X218105Y589452D01*
X218105Y577188D01*
X218035Y577118D01*
X217993Y577060D01*
X217943Y577008D01*
X217921Y576961D01*
X217891Y576919D01*
X217870Y576850D01*
X217840Y576785D01*
X217834Y576733D01*
X217819Y576683D01*
X217821Y576612D01*
X217813Y576541D01*
X217824Y576490D01*
X217825Y576438D01*
X217850Y576370D01*
X217865Y576300D01*
X217892Y576255D01*
X217909Y576207D01*
X217954Y576151D01*
X217991Y576089D01*
X218031Y576055D01*
X218063Y576015D01*
X218123Y575976D01*
X218178Y575929D01*
X218226Y575910D01*
X218270Y575882D01*
X218339Y575864D01*
X218406Y575837D01*
X218477Y575829D01*
X218509Y575821D01*
X218532Y575823D01*
X218573Y575819D01*
X226115Y575819D01*
X226185Y575830D01*
X226257Y575832D01*
X226306Y575850D01*
X226357Y575858D01*
X226421Y575892D01*
X226488Y575917D01*
X226529Y575949D01*
X226575Y575974D01*
X226624Y576026D01*
X226680Y576070D01*
X226708Y576114D01*
X226744Y576152D01*
X226774Y576217D01*
X226813Y576277D01*
X226826Y576328D01*
X226848Y576375D01*
X226856Y576446D01*
X226873Y576516D01*
X226869Y576568D01*
X226875Y576619D01*
X226860Y576690D01*
X226854Y576761D01*
X226834Y576809D01*
X226823Y576860D01*
X226786Y576921D01*
X226758Y576987D01*
X226713Y577043D01*
X226696Y577071D01*
X226679Y577086D01*
X226653Y577118D01*
X223801Y579970D01*
X223801Y584366D01*
X224461Y585026D01*
X224473Y585042D01*
X224488Y585055D01*
X224545Y585142D01*
X224605Y585226D01*
X224611Y585245D01*
X224621Y585262D01*
X224647Y585362D01*
X224677Y585461D01*
X224677Y585481D01*
X224682Y585500D01*
X224674Y585603D01*
X224671Y585707D01*
X224664Y585726D01*
X224662Y585745D01*
X224622Y585840D01*
X224586Y585938D01*
X224574Y585954D01*
X224566Y585972D01*
X224461Y586103D01*
X217492Y593072D01*
X217418Y593125D01*
X217348Y593185D01*
X217318Y593197D01*
X217292Y593216D01*
X217205Y593243D01*
X217120Y593277D01*
X217079Y593281D01*
X217057Y593288D01*
X217025Y593287D01*
X216953Y593295D01*
X205948Y593295D01*
X205055Y594188D01*
X205055Y606452D01*
X205948Y607345D01*
X217443Y607345D01*
X217534Y607359D01*
X217624Y607367D01*
X217654Y607379D01*
X217686Y607384D01*
X217767Y607427D01*
X217851Y607463D01*
X217883Y607489D01*
X217904Y607500D01*
X217926Y607523D01*
X217982Y607568D01*
X219740Y609326D01*
X219793Y609400D01*
X219853Y609470D01*
X219865Y609500D01*
X219884Y609526D01*
X219911Y609613D01*
X219945Y609698D01*
X219949Y609739D01*
X219956Y609761D01*
X219955Y609793D01*
X219963Y609865D01*
X219963Y613594D01*
X219952Y613665D01*
X219950Y613736D01*
X219932Y613785D01*
X219924Y613837D01*
X219890Y613900D01*
X219865Y613967D01*
X219833Y614008D01*
X219808Y614054D01*
X219756Y614104D01*
X219712Y614160D01*
X219668Y614188D01*
X219630Y614224D01*
X219565Y614254D01*
X219505Y614293D01*
X219454Y614305D01*
X219407Y614327D01*
X219336Y614335D01*
X219266Y614353D01*
X219214Y614349D01*
X219163Y614354D01*
X219092Y614339D01*
X219021Y614333D01*
X218973Y614313D01*
X218922Y614302D01*
X218861Y614265D01*
X218795Y614237D01*
X218739Y614192D01*
X218711Y614176D01*
X218696Y614158D01*
X218664Y614132D01*
X214766Y610234D01*
X206640Y610234D01*
X206549Y610220D01*
X206459Y610212D01*
X206429Y610200D01*
X206397Y610195D01*
X206316Y610152D01*
X206232Y610116D01*
X206200Y610090D01*
X206179Y610079D01*
X206157Y610056D01*
X206101Y610011D01*
X199593Y603503D01*
X198935Y603503D01*
X198845Y603489D01*
X198754Y603481D01*
X198724Y603469D01*
X198692Y603464D01*
X198611Y603421D01*
X198528Y603385D01*
X198495Y603359D01*
X198475Y603348D01*
X198470Y603343D01*
X198469Y603343D01*
X198451Y603324D01*
X198397Y603280D01*
X197652Y602535D01*
X174388Y602535D01*
X173495Y603428D01*
X173495Y610692D01*
X174388Y611585D01*
X197299Y611585D01*
X197390Y611599D01*
X197480Y611607D01*
X197510Y611619D01*
X197542Y611624D01*
X197623Y611667D01*
X197707Y611703D01*
X197739Y611729D01*
X197760Y611740D01*
X197782Y611763D01*
X197838Y611808D01*
X201071Y615041D01*
X201124Y615115D01*
X201184Y615185D01*
X201196Y615215D01*
X201215Y615241D01*
X201242Y615328D01*
X201276Y615413D01*
X201280Y615454D01*
X201287Y615476D01*
X201286Y615508D01*
X201294Y615580D01*
X201294Y623706D01*
X205192Y627604D01*
X205234Y627662D01*
X205284Y627714D01*
X205305Y627761D01*
X205336Y627803D01*
X205357Y627872D01*
X205387Y627937D01*
X205393Y627989D01*
X205408Y628039D01*
X205406Y628110D01*
X205414Y628181D01*
X205403Y628232D01*
X205402Y628284D01*
X205377Y628352D01*
X205362Y628422D01*
X205335Y628467D01*
X205317Y628515D01*
X205273Y628571D01*
X205236Y628633D01*
X205196Y628667D01*
X205164Y628707D01*
X205103Y628746D01*
X205049Y628793D01*
X205001Y628812D01*
X204957Y628840D01*
X204887Y628858D01*
X204821Y628885D01*
X204749Y628893D01*
X204718Y628901D01*
X204695Y628899D01*
X204654Y628903D01*
X198935Y628903D01*
X198845Y628889D01*
X198754Y628881D01*
X198724Y628869D01*
X198692Y628864D01*
X198611Y628821D01*
X198528Y628785D01*
X198495Y628759D01*
X198475Y628748D01*
X198453Y628725D01*
X198397Y628680D01*
X197652Y627935D01*
X174388Y627935D01*
X173495Y628828D01*
X173495Y636092D01*
X174388Y636985D01*
X197652Y636985D01*
X198397Y636240D01*
X198471Y636187D01*
X198540Y636127D01*
X198570Y636115D01*
X198596Y636096D01*
X198683Y636069D01*
X198768Y636035D01*
X198809Y636031D01*
X198831Y636024D01*
X198864Y636025D01*
X198935Y636017D01*
X202014Y636017D01*
X202034Y636020D01*
X202053Y636018D01*
X202155Y636040D01*
X202257Y636056D01*
X202274Y636066D01*
X202294Y636070D01*
X202383Y636123D01*
X202474Y636172D01*
X202488Y636186D01*
X202505Y636196D01*
X202572Y636275D01*
X202644Y636350D01*
X202652Y636368D01*
X202665Y636383D01*
X202704Y636479D01*
X202747Y636573D01*
X202749Y636593D01*
X202757Y636611D01*
X202775Y636778D01*
X202775Y637286D01*
X202772Y637306D01*
X202774Y637325D01*
X202752Y637427D01*
X202736Y637529D01*
X202726Y637546D01*
X202722Y637566D01*
X202669Y637655D01*
X202620Y637746D01*
X202606Y637760D01*
X202596Y637777D01*
X202517Y637844D01*
X202442Y637916D01*
X202424Y637924D01*
X202409Y637937D01*
X202313Y637976D01*
X202219Y638019D01*
X202199Y638021D01*
X202181Y638029D01*
X202014Y638047D01*
X200711Y638047D01*
X198346Y640412D01*
X198272Y640465D01*
X198202Y640525D01*
X198172Y640537D01*
X198146Y640556D01*
X198059Y640583D01*
X197974Y640617D01*
X197933Y640621D01*
X197911Y640628D01*
X197879Y640627D01*
X197807Y640635D01*
X174388Y640635D01*
X173495Y641528D01*
X173495Y648792D01*
X174388Y649685D01*
X197652Y649685D01*
X198397Y648940D01*
X198471Y648887D01*
X198540Y648827D01*
X198570Y648815D01*
X198596Y648796D01*
X198683Y648769D01*
X198768Y648735D01*
X198809Y648731D01*
X198831Y648724D01*
X198864Y648725D01*
X198935Y648717D01*
X200101Y648717D01*
X201476Y647342D01*
X201534Y647300D01*
X201586Y647251D01*
X201633Y647229D01*
X201675Y647199D01*
X201744Y647178D01*
X201809Y647147D01*
X201861Y647142D01*
X201911Y647126D01*
X201982Y647128D01*
X202053Y647120D01*
X202104Y647131D01*
X202156Y647133D01*
X202224Y647157D01*
X202294Y647173D01*
X202339Y647199D01*
X202387Y647217D01*
X202443Y647262D01*
X202505Y647299D01*
X202539Y647338D01*
X202579Y647371D01*
X202618Y647431D01*
X202665Y647486D01*
X202684Y647534D01*
X202712Y647578D01*
X202730Y647647D01*
X202757Y647714D01*
X202765Y647785D01*
X202773Y647816D01*
X202771Y647840D01*
X202774Y647870D01*
X203668Y648765D01*
X215932Y648765D01*
X216825Y647872D01*
X216825Y646559D01*
X216828Y646539D01*
X216826Y646520D01*
X216848Y646418D01*
X216864Y646316D01*
X216874Y646299D01*
X216878Y646279D01*
X216931Y646190D01*
X216980Y646099D01*
X216994Y646085D01*
X217004Y646068D01*
X217083Y646001D01*
X217158Y645930D01*
X217176Y645921D01*
X217191Y645908D01*
X217287Y645870D01*
X217381Y645826D01*
X217401Y645824D01*
X217419Y645816D01*
X217586Y645798D01*
X228684Y645800D01*
X228704Y645803D01*
X228723Y645801D01*
X228825Y645823D01*
X228927Y645839D01*
X228944Y645849D01*
X228964Y645853D01*
X229053Y645906D01*
X229144Y645955D01*
X229158Y645969D01*
X229175Y645979D01*
X229242Y646058D01*
X229314Y646133D01*
X229322Y646151D01*
X229335Y646166D01*
X229374Y646262D01*
X229417Y646356D01*
X229419Y646376D01*
X229427Y646394D01*
X229445Y646561D01*
X229445Y648122D01*
X230338Y649015D01*
X241618Y649015D01*
X241662Y648973D01*
X241709Y648951D01*
X241751Y648921D01*
X241820Y648900D01*
X241885Y648870D01*
X241937Y648864D01*
X241986Y648849D01*
X242058Y648851D01*
X242129Y648843D01*
X242180Y648854D01*
X242232Y648855D01*
X242300Y648880D01*
X242370Y648895D01*
X242415Y648922D01*
X242463Y648939D01*
X242519Y648984D01*
X242581Y649021D01*
X242615Y649061D01*
X242655Y649093D01*
X242694Y649153D01*
X242741Y649208D01*
X242760Y649256D01*
X242788Y649300D01*
X242806Y649370D01*
X242833Y649436D01*
X242841Y649507D01*
X242849Y649539D01*
X242847Y649562D01*
X242851Y649603D01*
X242851Y651377D01*
X242840Y651448D01*
X242838Y651520D01*
X242820Y651569D01*
X242812Y651620D01*
X242778Y651683D01*
X242753Y651751D01*
X242721Y651791D01*
X242696Y651837D01*
X242644Y651887D01*
X242600Y651943D01*
X242556Y651971D01*
X242518Y652007D01*
X242453Y652037D01*
X242393Y652076D01*
X242342Y652088D01*
X242295Y652110D01*
X242224Y652118D01*
X242154Y652136D01*
X242102Y652132D01*
X242051Y652137D01*
X241980Y652122D01*
X241909Y652117D01*
X241861Y652096D01*
X241810Y652085D01*
X241749Y652048D01*
X241683Y652020D01*
X241627Y651975D01*
X241610Y651965D01*
X230338Y651965D01*
X229445Y652858D01*
X229445Y654926D01*
X229442Y654946D01*
X229444Y654965D01*
X229422Y655067D01*
X229406Y655169D01*
X229396Y655186D01*
X229392Y655206D01*
X229339Y655295D01*
X229290Y655386D01*
X229276Y655400D01*
X229266Y655417D01*
X229187Y655484D01*
X229112Y655556D01*
X229094Y655564D01*
X229079Y655577D01*
X228983Y655616D01*
X228889Y655659D01*
X228869Y655661D01*
X228851Y655669D01*
X228684Y655687D01*
X223493Y655687D01*
X217586Y655686D01*
X217566Y655682D01*
X217547Y655685D01*
X217445Y655662D01*
X217343Y655646D01*
X217326Y655636D01*
X217306Y655632D01*
X217217Y655579D01*
X217126Y655531D01*
X217112Y655516D01*
X217095Y655506D01*
X217028Y655427D01*
X216956Y655352D01*
X216948Y655334D01*
X216935Y655319D01*
X216896Y655223D01*
X216853Y655129D01*
X216851Y655109D01*
X216843Y655091D01*
X216825Y654924D01*
X216825Y653608D01*
X215932Y652715D01*
X203668Y652715D01*
X202766Y653617D01*
X202752Y653683D01*
X202736Y653785D01*
X202726Y653802D01*
X202722Y653822D01*
X202669Y653911D01*
X202620Y654002D01*
X202606Y654016D01*
X202596Y654033D01*
X202517Y654100D01*
X202442Y654172D01*
X202424Y654180D01*
X202409Y654193D01*
X202313Y654232D01*
X202219Y654275D01*
X202199Y654277D01*
X202181Y654285D01*
X202014Y654303D01*
X198935Y654303D01*
X198845Y654289D01*
X198754Y654281D01*
X198724Y654269D01*
X198692Y654264D01*
X198611Y654221D01*
X198528Y654185D01*
X198495Y654159D01*
X198475Y654148D01*
X198453Y654125D01*
X198397Y654080D01*
X197652Y653335D01*
X174388Y653335D01*
X173495Y654228D01*
X173495Y661492D01*
X174388Y662385D01*
X197652Y662385D01*
X198397Y661640D01*
X198471Y661587D01*
X198540Y661527D01*
X198570Y661515D01*
X198596Y661496D01*
X198683Y661469D01*
X198768Y661435D01*
X198809Y661431D01*
X198831Y661424D01*
X198864Y661425D01*
X198935Y661417D01*
X202014Y661417D01*
X202034Y661420D01*
X202053Y661418D01*
X202155Y661440D01*
X202257Y661456D01*
X202274Y661466D01*
X202294Y661470D01*
X202383Y661523D01*
X202474Y661572D01*
X202488Y661586D01*
X202505Y661596D01*
X202572Y661675D01*
X202644Y661750D01*
X202652Y661768D01*
X202665Y661783D01*
X202704Y661879D01*
X202747Y661973D01*
X202749Y661993D01*
X202757Y662011D01*
X202775Y662178D01*
X202775Y664718D01*
X202772Y664738D01*
X202774Y664757D01*
X202752Y664859D01*
X202736Y664961D01*
X202726Y664978D01*
X202722Y664998D01*
X202669Y665087D01*
X202620Y665178D01*
X202606Y665192D01*
X202596Y665209D01*
X202517Y665276D01*
X202442Y665348D01*
X202424Y665356D01*
X202409Y665369D01*
X202313Y665408D01*
X202219Y665451D01*
X202199Y665453D01*
X202181Y665461D01*
X202014Y665479D01*
X138338Y665479D01*
X138318Y665476D01*
X138299Y665478D01*
X138197Y665456D01*
X138095Y665440D01*
X138078Y665430D01*
X138058Y665426D01*
X137969Y665373D01*
X137878Y665324D01*
X137864Y665310D01*
X137847Y665300D01*
X137780Y665221D01*
X137708Y665146D01*
X137700Y665128D01*
X137687Y665113D01*
X137648Y665017D01*
X137605Y664923D01*
X137603Y664903D01*
X137595Y664885D01*
X137577Y664718D01*
X137577Y663146D01*
X137580Y663126D01*
X137578Y663107D01*
X137600Y663005D01*
X137616Y662903D01*
X137626Y662886D01*
X137630Y662866D01*
X137683Y662777D01*
X137732Y662686D01*
X137746Y662672D01*
X137756Y662655D01*
X137835Y662588D01*
X137910Y662516D01*
X137928Y662508D01*
X137943Y662495D01*
X138039Y662456D01*
X138133Y662413D01*
X138153Y662411D01*
X138171Y662403D01*
X138338Y662385D01*
X145652Y662385D01*
X146545Y661492D01*
X146545Y654228D01*
X145652Y653335D01*
X138338Y653335D01*
X138318Y653332D01*
X138299Y653334D01*
X138197Y653312D01*
X138095Y653296D01*
X138078Y653286D01*
X138058Y653282D01*
X137969Y653229D01*
X137878Y653180D01*
X137864Y653166D01*
X137847Y653156D01*
X137780Y653077D01*
X137708Y653002D01*
X137700Y652984D01*
X137687Y652969D01*
X137648Y652873D01*
X137605Y652779D01*
X137603Y652759D01*
X137595Y652741D01*
X137577Y652574D01*
X137577Y650446D01*
X137580Y650426D01*
X137578Y650407D01*
X137600Y650305D01*
X137616Y650203D01*
X137626Y650186D01*
X137630Y650166D01*
X137683Y650077D01*
X137732Y649986D01*
X137746Y649972D01*
X137756Y649955D01*
X137835Y649888D01*
X137910Y649816D01*
X137928Y649808D01*
X137943Y649795D01*
X138039Y649756D01*
X138133Y649713D01*
X138153Y649711D01*
X138171Y649703D01*
X138338Y649685D01*
X145652Y649685D01*
X146397Y648940D01*
X146471Y648887D01*
X146540Y648827D01*
X146570Y648815D01*
X146596Y648796D01*
X146683Y648769D01*
X146768Y648735D01*
X146809Y648731D01*
X146831Y648724D01*
X146864Y648725D01*
X146935Y648717D01*
X148645Y648717D01*
X148735Y648731D01*
X148826Y648739D01*
X148855Y648751D01*
X148887Y648756D01*
X148968Y648799D01*
X149052Y648835D01*
X149084Y648861D01*
X149105Y648872D01*
X149127Y648895D01*
X149183Y648940D01*
X151218Y650975D01*
X155614Y650975D01*
X158723Y647866D01*
X158723Y643470D01*
X155614Y640361D01*
X151218Y640361D01*
X150199Y641380D01*
X150125Y641433D01*
X150055Y641493D01*
X150025Y641505D01*
X149999Y641524D01*
X149912Y641551D01*
X149827Y641585D01*
X149786Y641589D01*
X149764Y641596D01*
X149732Y641595D01*
X149661Y641603D01*
X146935Y641603D01*
X146845Y641589D01*
X146754Y641581D01*
X146724Y641569D01*
X146692Y641564D01*
X146611Y641521D01*
X146528Y641485D01*
X146495Y641459D01*
X146475Y641448D01*
X146453Y641425D01*
X146397Y641380D01*
X145652Y640635D01*
X122388Y640635D01*
X121495Y641528D01*
X121495Y648792D01*
X122388Y649685D01*
X129702Y649685D01*
X129722Y649688D01*
X129741Y649686D01*
X129843Y649708D01*
X129945Y649724D01*
X129962Y649734D01*
X129982Y649738D01*
X130071Y649791D01*
X130162Y649840D01*
X130176Y649854D01*
X130193Y649864D01*
X130260Y649943D01*
X130332Y650018D01*
X130340Y650036D01*
X130353Y650051D01*
X130392Y650147D01*
X130435Y650241D01*
X130437Y650261D01*
X130445Y650279D01*
X130463Y650446D01*
X130463Y652574D01*
X130460Y652594D01*
X130462Y652613D01*
X130440Y652715D01*
X130424Y652817D01*
X130414Y652834D01*
X130410Y652854D01*
X130357Y652943D01*
X130308Y653034D01*
X130294Y653048D01*
X130284Y653065D01*
X130205Y653132D01*
X130130Y653204D01*
X130112Y653212D01*
X130097Y653225D01*
X130001Y653264D01*
X129907Y653307D01*
X129887Y653309D01*
X129869Y653317D01*
X129702Y653335D01*
X122388Y653335D01*
X121495Y654228D01*
X121495Y658114D01*
X121492Y658134D01*
X121494Y658153D01*
X121472Y658255D01*
X121456Y658357D01*
X121446Y658374D01*
X121442Y658394D01*
X121389Y658483D01*
X121340Y658574D01*
X121326Y658588D01*
X121316Y658605D01*
X121237Y658672D01*
X121162Y658744D01*
X121144Y658752D01*
X121129Y658765D01*
X121033Y658804D01*
X120939Y658847D01*
X120919Y658849D01*
X120901Y658857D01*
X120734Y658875D01*
X105582Y658875D01*
X105562Y658872D01*
X105543Y658874D01*
X105441Y658852D01*
X105339Y658836D01*
X105322Y658826D01*
X105302Y658822D01*
X105213Y658769D01*
X105122Y658720D01*
X105108Y658706D01*
X105091Y658696D01*
X105024Y658617D01*
X104952Y658542D01*
X104944Y658524D01*
X104931Y658509D01*
X104892Y658413D01*
X104849Y658319D01*
X104847Y658299D01*
X104839Y658281D01*
X104821Y658114D01*
X104821Y654640D01*
X103928Y653747D01*
X92664Y653747D01*
X91771Y654640D01*
X91771Y662235D01*
X91771Y662236D01*
X91771Y662237D01*
X91751Y662358D01*
X91732Y662478D01*
X91731Y662478D01*
X91731Y662479D01*
X91674Y662586D01*
X91616Y662695D01*
X91616Y662696D01*
X91615Y662696D01*
X91526Y662781D01*
X91438Y662864D01*
X91437Y662865D01*
X91329Y662915D01*
X91215Y662968D01*
X91214Y662968D01*
X91213Y662968D01*
X91092Y662982D01*
X90971Y662995D01*
X90970Y662995D01*
X90969Y662995D01*
X90851Y662969D01*
X90730Y662943D01*
X90729Y662942D01*
X90623Y662879D01*
X90519Y662817D01*
X90518Y662816D01*
X90440Y662724D01*
X90359Y662630D01*
X90359Y662629D01*
X90358Y662628D01*
X90288Y662476D01*
X86295Y650516D01*
X86290Y650483D01*
X86266Y650397D01*
X83862Y635607D01*
X83862Y635597D01*
X83859Y635588D01*
X83862Y635475D01*
X83862Y635361D01*
X83866Y635352D01*
X83866Y635343D01*
X83905Y635235D01*
X83941Y635128D01*
X83947Y635120D01*
X83950Y635112D01*
X84021Y635023D01*
X84090Y634932D01*
X84098Y634927D01*
X84104Y634919D01*
X84200Y634858D01*
X84294Y634794D01*
X84303Y634792D01*
X84311Y634787D01*
X84421Y634759D01*
X84531Y634728D01*
X84540Y634729D01*
X84549Y634726D01*
X84662Y634735D01*
X84776Y634741D01*
X84785Y634745D01*
X84795Y634746D01*
X84899Y634790D01*
X85005Y634832D01*
X85012Y634838D01*
X85021Y634842D01*
X85152Y634947D01*
X85178Y634973D01*
X89574Y634973D01*
X89962Y634585D01*
X90020Y634543D01*
X90072Y634494D01*
X90119Y634472D01*
X90161Y634442D01*
X90230Y634420D01*
X90295Y634390D01*
X90347Y634385D01*
X90397Y634369D01*
X90468Y634371D01*
X90539Y634363D01*
X90590Y634374D01*
X90642Y634376D01*
X90710Y634400D01*
X90780Y634415D01*
X90825Y634442D01*
X90873Y634460D01*
X90929Y634505D01*
X90991Y634542D01*
X91025Y634581D01*
X91065Y634614D01*
X91104Y634674D01*
X91151Y634729D01*
X91170Y634777D01*
X91198Y634821D01*
X91216Y634890D01*
X91243Y634957D01*
X91251Y635028D01*
X91259Y635059D01*
X91257Y635082D01*
X91261Y635123D01*
X91261Y635408D01*
X91376Y635522D01*
X91388Y635539D01*
X91403Y635551D01*
X91459Y635638D01*
X91520Y635722D01*
X91525Y635741D01*
X91536Y635758D01*
X91561Y635858D01*
X91592Y635957D01*
X91591Y635977D01*
X91596Y635996D01*
X91588Y636099D01*
X91586Y636203D01*
X91579Y636222D01*
X91577Y636242D01*
X91537Y636337D01*
X91501Y636434D01*
X91489Y636450D01*
X91481Y636468D01*
X91376Y636599D01*
X91263Y636712D01*
X90928Y637291D01*
X90755Y637938D01*
X90755Y642249D01*
X97534Y642249D01*
X97554Y642252D01*
X97573Y642250D01*
X97675Y642272D01*
X97777Y642289D01*
X97794Y642298D01*
X97814Y642302D01*
X97903Y642355D01*
X97994Y642404D01*
X98008Y642418D01*
X98025Y642428D01*
X98092Y642507D01*
X98163Y642582D01*
X98172Y642600D01*
X98185Y642615D01*
X98224Y642711D01*
X98267Y642805D01*
X98269Y642825D01*
X98277Y642843D01*
X98295Y643010D01*
X98295Y643773D01*
X98297Y643773D01*
X98297Y643010D01*
X98300Y642990D01*
X98298Y642971D01*
X98320Y642869D01*
X98337Y642767D01*
X98346Y642750D01*
X98350Y642730D01*
X98403Y642641D01*
X98452Y642550D01*
X98466Y642536D01*
X98476Y642519D01*
X98555Y642452D01*
X98630Y642381D01*
X98648Y642372D01*
X98663Y642359D01*
X98759Y642320D01*
X98853Y642277D01*
X98873Y642275D01*
X98891Y642267D01*
X99058Y642249D01*
X105837Y642249D01*
X105837Y637938D01*
X105664Y637291D01*
X105329Y636712D01*
X104856Y636239D01*
X104691Y636144D01*
X104639Y636101D01*
X104581Y636066D01*
X104544Y636024D01*
X104501Y635988D01*
X104465Y635931D01*
X104421Y635879D01*
X104400Y635827D01*
X104370Y635780D01*
X104355Y635714D01*
X104339Y635676D01*
X104339Y635675D01*
X104329Y635651D01*
X104320Y635573D01*
X104313Y635541D01*
X104315Y635520D01*
X104311Y635485D01*
X104311Y623144D01*
X103418Y622251D01*
X92154Y622251D01*
X91261Y623144D01*
X91261Y624209D01*
X91250Y624279D01*
X91248Y624351D01*
X91230Y624400D01*
X91222Y624451D01*
X91188Y624515D01*
X91163Y624582D01*
X91131Y624623D01*
X91106Y624669D01*
X91055Y624718D01*
X91010Y624774D01*
X90966Y624802D01*
X90928Y624838D01*
X90863Y624868D01*
X90803Y624907D01*
X90752Y624920D01*
X90705Y624942D01*
X90634Y624950D01*
X90564Y624967D01*
X90512Y624963D01*
X90461Y624969D01*
X90390Y624954D01*
X90319Y624948D01*
X90271Y624928D01*
X90220Y624917D01*
X90159Y624880D01*
X90093Y624852D01*
X90037Y624807D01*
X90009Y624790D01*
X89994Y624773D01*
X89962Y624747D01*
X89574Y624359D01*
X85178Y624359D01*
X84264Y625273D01*
X84206Y625315D01*
X84154Y625365D01*
X84106Y625387D01*
X84064Y625417D01*
X83996Y625438D01*
X83930Y625468D01*
X83879Y625474D01*
X83829Y625489D01*
X83757Y625487D01*
X83686Y625495D01*
X83635Y625484D01*
X83583Y625483D01*
X83516Y625458D01*
X83446Y625443D01*
X83401Y625416D01*
X83352Y625399D01*
X83296Y625354D01*
X83235Y625317D01*
X83201Y625277D01*
X83160Y625245D01*
X83121Y625185D01*
X83075Y625130D01*
X83055Y625082D01*
X83027Y625038D01*
X83009Y624968D01*
X82983Y624902D01*
X82975Y624831D01*
X82967Y624799D01*
X82969Y624776D01*
X82964Y624735D01*
X82964Y609500D01*
X82969Y609468D01*
X82974Y609378D01*
X84401Y600596D01*
X84405Y600586D01*
X84405Y600576D01*
X84443Y600470D01*
X84479Y600363D01*
X84486Y600354D01*
X84489Y600345D01*
X84560Y600257D01*
X84628Y600167D01*
X84636Y600161D01*
X84643Y600153D01*
X84738Y600092D01*
X84831Y600028D01*
X84841Y600025D01*
X84850Y600020D01*
X84959Y599992D01*
X85068Y599962D01*
X85078Y599962D01*
X85088Y599960D01*
X85200Y599968D01*
X85314Y599974D01*
X85323Y599978D01*
X85334Y599979D01*
X85437Y600023D01*
X85542Y600064D01*
X85550Y600071D01*
X85560Y600075D01*
X85691Y600180D01*
X87210Y601699D01*
X91637Y601699D01*
X91639Y601697D01*
X91669Y601685D01*
X91695Y601666D01*
X91782Y601639D01*
X91867Y601605D01*
X91908Y601601D01*
X91930Y601594D01*
X91962Y601595D01*
X92033Y601587D01*
X94074Y601587D01*
X94094Y601590D01*
X94113Y601588D01*
X94215Y601610D01*
X94317Y601626D01*
X94334Y601636D01*
X94354Y601640D01*
X94443Y601693D01*
X94534Y601742D01*
X94548Y601756D01*
X94565Y601766D01*
X94632Y601845D01*
X94704Y601920D01*
X94712Y601938D01*
X94725Y601953D01*
X94764Y602049D01*
X94807Y602143D01*
X94809Y602163D01*
X94817Y602181D01*
X94835Y602348D01*
X94835Y603474D01*
X94832Y603494D01*
X94834Y603513D01*
X94812Y603615D01*
X94796Y603717D01*
X94786Y603734D01*
X94782Y603754D01*
X94729Y603843D01*
X94680Y603934D01*
X94666Y603948D01*
X94656Y603965D01*
X94577Y604032D01*
X94502Y604104D01*
X94484Y604112D01*
X94469Y604125D01*
X94373Y604164D01*
X94279Y604207D01*
X94259Y604209D01*
X94241Y604217D01*
X94074Y604235D01*
X92452Y604235D01*
X91805Y604408D01*
X91226Y604743D01*
X90753Y605216D01*
X90418Y605795D01*
X90245Y606442D01*
X90245Y610753D01*
X97024Y610753D01*
X97044Y610756D01*
X97063Y610754D01*
X97165Y610776D01*
X97267Y610793D01*
X97284Y610802D01*
X97304Y610806D01*
X97393Y610859D01*
X97484Y610908D01*
X97498Y610922D01*
X97515Y610932D01*
X97582Y611011D01*
X97653Y611086D01*
X97662Y611104D01*
X97675Y611119D01*
X97714Y611215D01*
X97757Y611309D01*
X97759Y611329D01*
X97767Y611347D01*
X97785Y611514D01*
X97785Y612277D01*
X97787Y612277D01*
X97787Y611514D01*
X97790Y611494D01*
X97788Y611475D01*
X97810Y611373D01*
X97827Y611271D01*
X97836Y611254D01*
X97840Y611234D01*
X97893Y611145D01*
X97942Y611054D01*
X97956Y611040D01*
X97966Y611023D01*
X98045Y610956D01*
X98120Y610885D01*
X98138Y610876D01*
X98153Y610863D01*
X98249Y610824D01*
X98343Y610781D01*
X98363Y610779D01*
X98381Y610771D01*
X98548Y610753D01*
X105327Y610753D01*
X105327Y606442D01*
X105154Y605795D01*
X105097Y605697D01*
X105063Y605608D01*
X105023Y605521D01*
X105020Y605493D01*
X105010Y605467D01*
X105006Y605371D01*
X104996Y605277D01*
X105002Y605249D01*
X105001Y605221D01*
X105028Y605129D01*
X105048Y605036D01*
X105062Y605012D01*
X105070Y604985D01*
X105125Y604907D01*
X105174Y604825D01*
X105195Y604807D01*
X105212Y604784D01*
X105288Y604727D01*
X105361Y604665D01*
X105387Y604655D01*
X105410Y604638D01*
X105500Y604609D01*
X105589Y604573D01*
X105624Y604569D01*
X105644Y604563D01*
X105677Y604563D01*
X105756Y604555D01*
X107992Y604555D01*
X108885Y603662D01*
X108885Y598678D01*
X108888Y598658D01*
X108886Y598639D01*
X108908Y598537D01*
X108924Y598435D01*
X108934Y598418D01*
X108938Y598398D01*
X108991Y598309D01*
X109040Y598218D01*
X109054Y598204D01*
X109064Y598187D01*
X109143Y598120D01*
X109218Y598048D01*
X109236Y598040D01*
X109251Y598027D01*
X109347Y597988D01*
X109441Y597945D01*
X109461Y597943D01*
X109479Y597935D01*
X109646Y597917D01*
X121105Y597917D01*
X121195Y597931D01*
X121286Y597939D01*
X121316Y597951D01*
X121348Y597956D01*
X121429Y597999D01*
X121512Y598035D01*
X121545Y598061D01*
X121565Y598072D01*
X121587Y598095D01*
X121643Y598140D01*
X122388Y598885D01*
X145652Y598885D01*
X146545Y597992D01*
X146545Y590728D01*
X145652Y589835D01*
X122388Y589835D01*
X121643Y590580D01*
X121569Y590633D01*
X121500Y590693D01*
X121470Y590705D01*
X121444Y590724D01*
X121357Y590751D01*
X121272Y590785D01*
X121231Y590789D01*
X121209Y590796D01*
X121176Y590795D01*
X121105Y590803D01*
X107313Y590803D01*
X107307Y590802D01*
X105525Y590803D01*
X105524Y590803D01*
X104052Y590803D01*
X103573Y591282D01*
X103499Y591335D01*
X103430Y591395D01*
X103400Y591407D01*
X103374Y591426D01*
X103287Y591453D01*
X103202Y591487D01*
X103161Y591491D01*
X103139Y591498D01*
X103107Y591497D01*
X103035Y591505D01*
X95728Y591505D01*
X94835Y592398D01*
X94835Y592477D01*
X94824Y592547D01*
X94822Y592619D01*
X94804Y592668D01*
X94796Y592719D01*
X94762Y592783D01*
X94737Y592850D01*
X94705Y592891D01*
X94680Y592937D01*
X94628Y592986D01*
X94584Y593042D01*
X94540Y593070D01*
X94502Y593106D01*
X94437Y593136D01*
X94377Y593175D01*
X94326Y593188D01*
X94279Y593210D01*
X94208Y593218D01*
X94138Y593235D01*
X94086Y593231D01*
X94035Y593237D01*
X93964Y593222D01*
X93893Y593216D01*
X93845Y593196D01*
X93794Y593185D01*
X93733Y593148D01*
X93667Y593120D01*
X93611Y593075D01*
X93583Y593058D01*
X93568Y593041D01*
X93536Y593015D01*
X91606Y591085D01*
X87124Y591085D01*
X87044Y591108D01*
X86935Y591141D01*
X86926Y591141D01*
X86916Y591144D01*
X86802Y591138D01*
X86689Y591135D01*
X86680Y591132D01*
X86671Y591131D01*
X86565Y591089D01*
X86458Y591050D01*
X86451Y591044D01*
X86442Y591041D01*
X86355Y590968D01*
X86266Y590897D01*
X86261Y590889D01*
X86254Y590882D01*
X86195Y590785D01*
X86133Y590690D01*
X86131Y590680D01*
X86126Y590672D01*
X86101Y590561D01*
X86073Y590451D01*
X86074Y590442D01*
X86072Y590432D01*
X86080Y590265D01*
X86266Y589123D01*
X86276Y589092D01*
X86295Y589004D01*
X92793Y569540D01*
X92808Y569511D01*
X92841Y569427D01*
X102377Y551258D01*
X102397Y551231D01*
X102443Y551154D01*
X114770Y534749D01*
X114794Y534727D01*
X114852Y534658D01*
X129651Y520443D01*
X129678Y520424D01*
X129746Y520365D01*
X146634Y508708D01*
X146663Y508694D01*
X146740Y508647D01*
X165279Y499850D01*
X165310Y499841D01*
X165393Y499807D01*
X185103Y494098D01*
X185136Y494094D01*
X185223Y494073D01*
X205594Y491600D01*
X205627Y491601D01*
X205716Y491595D01*
X226220Y492421D01*
G37*
%LPC*%
G36*
X291935Y551937D02*
X291935Y551937D01*
X291935Y552700D01*
X291932Y552720D01*
X291934Y552739D01*
X291912Y552841D01*
X291895Y552943D01*
X291886Y552960D01*
X291882Y552980D01*
X291829Y553069D01*
X291780Y553160D01*
X291766Y553174D01*
X291756Y553191D01*
X291677Y553258D01*
X291602Y553329D01*
X291584Y553338D01*
X291569Y553351D01*
X291473Y553390D01*
X291379Y553433D01*
X291359Y553435D01*
X291341Y553443D01*
X291174Y553461D01*
X283395Y553461D01*
X283395Y558272D01*
X283568Y558919D01*
X283903Y559498D01*
X284376Y559971D01*
X284955Y560306D01*
X285602Y560479D01*
X285651Y560479D01*
X285721Y560490D01*
X285793Y560492D01*
X285842Y560510D01*
X285893Y560518D01*
X285957Y560552D01*
X286024Y560577D01*
X286065Y560609D01*
X286111Y560634D01*
X286160Y560685D01*
X286216Y560730D01*
X286244Y560774D01*
X286280Y560812D01*
X286310Y560877D01*
X286349Y560937D01*
X286362Y560988D01*
X286384Y561035D01*
X286392Y561106D01*
X286409Y561176D01*
X286405Y561228D01*
X286411Y561279D01*
X286396Y561350D01*
X286390Y561421D01*
X286370Y561469D01*
X286359Y561520D01*
X286322Y561581D01*
X286294Y561647D01*
X286285Y561658D01*
X286285Y566078D01*
X287812Y567605D01*
X287865Y567679D01*
X287925Y567749D01*
X287937Y567779D01*
X287956Y567805D01*
X287983Y567892D01*
X288017Y567977D01*
X288021Y568018D01*
X288028Y568040D01*
X288027Y568072D01*
X288035Y568143D01*
X288035Y568960D01*
X288032Y568980D01*
X288034Y568999D01*
X288012Y569101D01*
X287996Y569203D01*
X287986Y569220D01*
X287982Y569240D01*
X287929Y569329D01*
X287880Y569420D01*
X287866Y569434D01*
X287856Y569451D01*
X287777Y569518D01*
X287702Y569590D01*
X287684Y569598D01*
X287669Y569611D01*
X287573Y569650D01*
X287479Y569693D01*
X287459Y569695D01*
X287441Y569703D01*
X287274Y569721D01*
X283592Y569721D01*
X282699Y570614D01*
X282699Y597278D01*
X283592Y598171D01*
X297556Y598171D01*
X298449Y597278D01*
X298449Y570614D01*
X297556Y569721D01*
X295910Y569721D01*
X295890Y569718D01*
X295871Y569720D01*
X295769Y569698D01*
X295667Y569682D01*
X295650Y569672D01*
X295630Y569668D01*
X295541Y569615D01*
X295450Y569566D01*
X295436Y569552D01*
X295419Y569542D01*
X295352Y569463D01*
X295280Y569388D01*
X295272Y569370D01*
X295259Y569355D01*
X295220Y569259D01*
X295177Y569165D01*
X295175Y569145D01*
X295167Y569127D01*
X295149Y568960D01*
X295149Y568143D01*
X295163Y568053D01*
X295171Y567962D01*
X295183Y567933D01*
X295188Y567901D01*
X295231Y567820D01*
X295267Y567736D01*
X295293Y567704D01*
X295304Y567683D01*
X295327Y567661D01*
X295372Y567605D01*
X296899Y566078D01*
X296899Y561657D01*
X296882Y561621D01*
X296852Y561579D01*
X296830Y561510D01*
X296800Y561445D01*
X296795Y561393D01*
X296779Y561344D01*
X296781Y561272D01*
X296773Y561201D01*
X296784Y561150D01*
X296786Y561098D01*
X296810Y561030D01*
X296825Y560960D01*
X296852Y560915D01*
X296870Y560867D01*
X296915Y560811D01*
X296952Y560749D01*
X296991Y560715D01*
X297024Y560675D01*
X297084Y560636D01*
X297139Y560589D01*
X297187Y560570D01*
X297231Y560542D01*
X297300Y560524D01*
X297367Y560497D01*
X297438Y560489D01*
X297469Y560481D01*
X297492Y560483D01*
X297533Y560479D01*
X298270Y560479D01*
X298917Y560306D01*
X299496Y559971D01*
X299969Y559498D01*
X300304Y558919D01*
X300477Y558272D01*
X300477Y553461D01*
X292698Y553461D01*
X292678Y553458D01*
X292659Y553460D01*
X292557Y553438D01*
X292455Y553421D01*
X292438Y553412D01*
X292418Y553408D01*
X292329Y553355D01*
X292238Y553306D01*
X292224Y553292D01*
X292207Y553282D01*
X292140Y553203D01*
X292069Y553128D01*
X292060Y553110D01*
X292047Y553095D01*
X292008Y552999D01*
X291965Y552905D01*
X291963Y552885D01*
X291955Y552867D01*
X291937Y552700D01*
X291937Y551937D01*
X291935Y551937D01*
G37*
%LPD*%
%LPC*%
G36*
X168236Y539239D02*
X168236Y539239D01*
X165127Y542348D01*
X165127Y546744D01*
X165469Y547086D01*
X165511Y547144D01*
X165560Y547196D01*
X165582Y547243D01*
X165612Y547285D01*
X165634Y547354D01*
X165664Y547419D01*
X165669Y547471D01*
X165685Y547521D01*
X165683Y547592D01*
X165691Y547663D01*
X165680Y547714D01*
X165678Y547766D01*
X165654Y547834D01*
X165639Y547904D01*
X165612Y547949D01*
X165594Y547997D01*
X165549Y548053D01*
X165512Y548115D01*
X165473Y548149D01*
X165440Y548189D01*
X165380Y548228D01*
X165325Y548275D01*
X165277Y548294D01*
X165233Y548322D01*
X165164Y548340D01*
X165097Y548367D01*
X165026Y548375D01*
X164995Y548383D01*
X164972Y548381D01*
X164931Y548385D01*
X152704Y548385D01*
X152684Y548382D01*
X152665Y548384D01*
X152563Y548362D01*
X152461Y548346D01*
X152444Y548336D01*
X152424Y548332D01*
X152335Y548279D01*
X152244Y548230D01*
X152230Y548216D01*
X152213Y548206D01*
X152146Y548127D01*
X152074Y548052D01*
X152066Y548034D01*
X152053Y548019D01*
X152014Y547923D01*
X151971Y547829D01*
X151969Y547809D01*
X151961Y547791D01*
X151943Y547624D01*
X151943Y545556D01*
X151050Y544663D01*
X139786Y544663D01*
X138893Y545556D01*
X138893Y557820D01*
X139786Y558713D01*
X151050Y558713D01*
X151943Y557820D01*
X151943Y556260D01*
X151946Y556240D01*
X151944Y556221D01*
X151966Y556119D01*
X151982Y556017D01*
X151992Y556000D01*
X151996Y555980D01*
X152049Y555891D01*
X152098Y555800D01*
X152112Y555786D01*
X152122Y555769D01*
X152201Y555702D01*
X152276Y555630D01*
X152294Y555622D01*
X152309Y555609D01*
X152405Y555570D01*
X152499Y555527D01*
X152519Y555525D01*
X152537Y555517D01*
X152704Y555499D01*
X174972Y555499D01*
X174992Y555502D01*
X175011Y555500D01*
X175113Y555522D01*
X175215Y555538D01*
X175232Y555548D01*
X175252Y555552D01*
X175341Y555605D01*
X175432Y555654D01*
X175446Y555668D01*
X175463Y555678D01*
X175530Y555757D01*
X175602Y555832D01*
X175610Y555850D01*
X175623Y555865D01*
X175662Y555961D01*
X175705Y556055D01*
X175707Y556075D01*
X175715Y556093D01*
X175733Y556260D01*
X175733Y558080D01*
X176626Y558973D01*
X187890Y558973D01*
X188783Y558080D01*
X188783Y545816D01*
X187890Y544923D01*
X176502Y544923D01*
X176482Y544920D01*
X176463Y544922D01*
X176361Y544900D01*
X176259Y544884D01*
X176242Y544874D01*
X176222Y544870D01*
X176133Y544817D01*
X176042Y544768D01*
X176028Y544754D01*
X176011Y544744D01*
X175944Y544665D01*
X175872Y544590D01*
X175864Y544572D01*
X175851Y544557D01*
X175812Y544461D01*
X175769Y544367D01*
X175767Y544347D01*
X175759Y544329D01*
X175741Y544162D01*
X175741Y542348D01*
X172632Y539239D01*
X168236Y539239D01*
G37*
%LPD*%
%LPC*%
G36*
X236017Y510285D02*
X236017Y510285D01*
X230485Y515817D01*
X230485Y533845D01*
X230794Y534154D01*
X230847Y534228D01*
X230907Y534298D01*
X230919Y534328D01*
X230938Y534354D01*
X230965Y534441D01*
X230999Y534526D01*
X231003Y534567D01*
X231010Y534589D01*
X231009Y534621D01*
X231017Y534693D01*
X231017Y539504D01*
X231910Y540397D01*
X236174Y540397D01*
X237067Y539504D01*
X237067Y534693D01*
X237081Y534602D01*
X237089Y534512D01*
X237101Y534482D01*
X237106Y534450D01*
X237149Y534369D01*
X237185Y534285D01*
X237211Y534253D01*
X237222Y534232D01*
X237245Y534210D01*
X237290Y534154D01*
X237599Y533845D01*
X237599Y519079D01*
X237613Y518988D01*
X237621Y518898D01*
X237633Y518868D01*
X237638Y518836D01*
X237681Y518755D01*
X237717Y518671D01*
X237743Y518639D01*
X237754Y518618D01*
X237777Y518596D01*
X237822Y518540D01*
X238740Y517622D01*
X238814Y517569D01*
X238884Y517509D01*
X238914Y517497D01*
X238940Y517478D01*
X239027Y517451D01*
X239112Y517417D01*
X239153Y517413D01*
X239175Y517406D01*
X239207Y517407D01*
X239279Y517399D01*
X269483Y517399D01*
X269574Y517413D01*
X269664Y517421D01*
X269694Y517433D01*
X269726Y517438D01*
X269807Y517481D01*
X269891Y517517D01*
X269923Y517543D01*
X269944Y517554D01*
X269966Y517577D01*
X270022Y517622D01*
X278188Y525788D01*
X278241Y525862D01*
X278301Y525932D01*
X278313Y525962D01*
X278332Y525988D01*
X278359Y526075D01*
X278393Y526160D01*
X278397Y526201D01*
X278404Y526223D01*
X278403Y526255D01*
X278411Y526327D01*
X278411Y528486D01*
X281520Y531595D01*
X285916Y531595D01*
X289025Y528486D01*
X289025Y524090D01*
X285916Y520981D01*
X283757Y520981D01*
X283666Y520967D01*
X283576Y520959D01*
X283546Y520947D01*
X283514Y520942D01*
X283433Y520899D01*
X283349Y520863D01*
X283317Y520837D01*
X283296Y520826D01*
X283274Y520803D01*
X283218Y520758D01*
X275052Y512592D01*
X272745Y510285D01*
X236017Y510285D01*
G37*
%LPD*%
%LPC*%
G36*
X314032Y558573D02*
X314032Y558573D01*
X310923Y561682D01*
X310923Y566078D01*
X312194Y567349D01*
X312247Y567423D01*
X312307Y567493D01*
X312319Y567523D01*
X312338Y567549D01*
X312365Y567636D01*
X312399Y567721D01*
X312403Y567762D01*
X312410Y567784D01*
X312409Y567816D01*
X312417Y567887D01*
X312417Y569216D01*
X312414Y569236D01*
X312416Y569255D01*
X312394Y569357D01*
X312378Y569459D01*
X312368Y569476D01*
X312364Y569496D01*
X312311Y569585D01*
X312262Y569676D01*
X312248Y569690D01*
X312238Y569707D01*
X312159Y569774D01*
X312084Y569846D01*
X312066Y569854D01*
X312051Y569867D01*
X311955Y569906D01*
X311861Y569949D01*
X311841Y569951D01*
X311823Y569959D01*
X311656Y569977D01*
X308992Y569977D01*
X308099Y570870D01*
X308099Y597534D01*
X308992Y598427D01*
X322956Y598427D01*
X323849Y597534D01*
X323849Y570870D01*
X322956Y569977D01*
X320292Y569977D01*
X320272Y569974D01*
X320253Y569976D01*
X320151Y569954D01*
X320049Y569938D01*
X320032Y569928D01*
X320012Y569924D01*
X319923Y569871D01*
X319832Y569822D01*
X319818Y569808D01*
X319801Y569798D01*
X319734Y569719D01*
X319662Y569644D01*
X319654Y569626D01*
X319641Y569611D01*
X319602Y569515D01*
X319559Y569421D01*
X319557Y569401D01*
X319549Y569383D01*
X319531Y569216D01*
X319531Y568399D01*
X319546Y568309D01*
X319553Y568218D01*
X319565Y568189D01*
X319570Y568157D01*
X319613Y568076D01*
X319649Y567992D01*
X319675Y567960D01*
X319686Y567939D01*
X319709Y567917D01*
X319754Y567861D01*
X321537Y566078D01*
X321537Y561682D01*
X318428Y558573D01*
X314032Y558573D01*
G37*
%LPD*%
%LPC*%
G36*
X264304Y544413D02*
X264304Y544413D01*
X263411Y545306D01*
X263411Y547626D01*
X263408Y547645D01*
X263410Y547665D01*
X263388Y547766D01*
X263372Y547869D01*
X263362Y547886D01*
X263358Y547905D01*
X263305Y547995D01*
X263256Y548086D01*
X263242Y548100D01*
X263232Y548117D01*
X263153Y548184D01*
X263078Y548255D01*
X263060Y548264D01*
X263045Y548277D01*
X262949Y548315D01*
X262855Y548359D01*
X262835Y548361D01*
X262817Y548369D01*
X262650Y548387D01*
X257088Y548388D01*
X257068Y548385D01*
X257049Y548387D01*
X256948Y548365D01*
X256845Y548348D01*
X256828Y548339D01*
X256808Y548335D01*
X256719Y548282D01*
X256628Y548233D01*
X256614Y548219D01*
X256597Y548209D01*
X256530Y548130D01*
X256459Y548055D01*
X256450Y548037D01*
X256437Y548022D01*
X256398Y547925D01*
X256355Y547832D01*
X256353Y547812D01*
X256345Y547793D01*
X256327Y547627D01*
X256327Y545814D01*
X255434Y544921D01*
X244170Y544921D01*
X243277Y545814D01*
X243277Y558078D01*
X244170Y558971D01*
X255434Y558971D01*
X256327Y558078D01*
X256327Y556263D01*
X256330Y556243D01*
X256328Y556223D01*
X256350Y556122D01*
X256366Y556020D01*
X256376Y556002D01*
X256380Y555983D01*
X256433Y555894D01*
X256482Y555803D01*
X256496Y555789D01*
X256506Y555772D01*
X256585Y555705D01*
X256660Y555633D01*
X256678Y555625D01*
X256693Y555612D01*
X256789Y555573D01*
X256883Y555530D01*
X256903Y555527D01*
X256921Y555520D01*
X257088Y555501D01*
X262650Y555500D01*
X262670Y555504D01*
X262689Y555502D01*
X262790Y555523D01*
X262893Y555540D01*
X262910Y555550D01*
X262930Y555554D01*
X263019Y555607D01*
X263110Y555655D01*
X263124Y555670D01*
X263141Y555680D01*
X263208Y555759D01*
X263279Y555834D01*
X263288Y555852D01*
X263301Y555867D01*
X263340Y555963D01*
X263383Y556057D01*
X263385Y556076D01*
X263393Y556095D01*
X263411Y556262D01*
X263411Y558570D01*
X264304Y559463D01*
X277568Y559463D01*
X278461Y558570D01*
X278461Y545306D01*
X277568Y544413D01*
X264304Y544413D01*
G37*
%LPD*%
%LPC*%
G36*
X294448Y666329D02*
X294448Y666329D01*
X293555Y667222D01*
X293555Y679486D01*
X294448Y680379D01*
X295762Y680379D01*
X295782Y680382D01*
X295801Y680380D01*
X295903Y680402D01*
X296005Y680418D01*
X296022Y680428D01*
X296042Y680432D01*
X296131Y680485D01*
X296222Y680534D01*
X296236Y680548D01*
X296253Y680558D01*
X296320Y680637D01*
X296392Y680712D01*
X296400Y680730D01*
X296413Y680745D01*
X296452Y680841D01*
X296495Y680935D01*
X296497Y680955D01*
X296505Y680973D01*
X296523Y681140D01*
X296523Y683360D01*
X296520Y683380D01*
X296522Y683399D01*
X296500Y683501D01*
X296484Y683603D01*
X296474Y683620D01*
X296470Y683640D01*
X296417Y683729D01*
X296368Y683820D01*
X296354Y683834D01*
X296344Y683851D01*
X296265Y683918D01*
X296190Y683990D01*
X296172Y683998D01*
X296157Y684011D01*
X296061Y684050D01*
X295967Y684093D01*
X295947Y684095D01*
X295929Y684103D01*
X295762Y684121D01*
X295206Y684121D01*
X294313Y685014D01*
X294313Y698278D01*
X295206Y699171D01*
X308470Y699171D01*
X309363Y698278D01*
X309363Y685014D01*
X308470Y684121D01*
X304398Y684121D01*
X304378Y684118D01*
X304359Y684120D01*
X304257Y684098D01*
X304155Y684082D01*
X304138Y684072D01*
X304118Y684068D01*
X304029Y684015D01*
X303938Y683966D01*
X303924Y683952D01*
X303907Y683942D01*
X303840Y683863D01*
X303768Y683788D01*
X303760Y683770D01*
X303747Y683755D01*
X303708Y683659D01*
X303665Y683565D01*
X303663Y683545D01*
X303655Y683527D01*
X303637Y683360D01*
X303637Y681140D01*
X303640Y681122D01*
X303638Y681106D01*
X303638Y681104D01*
X303638Y681101D01*
X303660Y680999D01*
X303676Y680897D01*
X303686Y680880D01*
X303690Y680860D01*
X303743Y680771D01*
X303792Y680680D01*
X303806Y680666D01*
X303816Y680649D01*
X303895Y680582D01*
X303970Y680510D01*
X303988Y680502D01*
X304003Y680489D01*
X304099Y680450D01*
X304193Y680407D01*
X304213Y680405D01*
X304231Y680397D01*
X304398Y680379D01*
X305712Y680379D01*
X306605Y679486D01*
X306605Y667222D01*
X305712Y666329D01*
X294448Y666329D01*
G37*
%LPD*%
%LPC*%
G36*
X122388Y627935D02*
X122388Y627935D01*
X121495Y628828D01*
X121495Y636092D01*
X122388Y636985D01*
X145652Y636985D01*
X146651Y635986D01*
X146725Y635933D01*
X146794Y635873D01*
X146824Y635861D01*
X146850Y635842D01*
X146937Y635815D01*
X147022Y635781D01*
X147063Y635777D01*
X147085Y635770D01*
X147118Y635771D01*
X147189Y635763D01*
X157789Y635763D01*
X157879Y635777D01*
X157970Y635785D01*
X157999Y635797D01*
X158031Y635802D01*
X158112Y635845D01*
X158196Y635881D01*
X158228Y635907D01*
X158249Y635918D01*
X158271Y635941D01*
X158327Y635986D01*
X161632Y639291D01*
X166028Y639291D01*
X169137Y636182D01*
X169137Y631786D01*
X166028Y628677D01*
X163869Y628677D01*
X163778Y628663D01*
X163688Y628655D01*
X163673Y628649D01*
X146681Y628649D01*
X146591Y628635D01*
X146500Y628627D01*
X146470Y628615D01*
X146438Y628610D01*
X146357Y628567D01*
X146274Y628531D01*
X146241Y628505D01*
X146221Y628494D01*
X146199Y628471D01*
X146143Y628426D01*
X145652Y627935D01*
X122388Y627935D01*
G37*
%LPD*%
%LPC*%
G36*
X153758Y509805D02*
X153758Y509805D01*
X150649Y512914D01*
X150649Y517310D01*
X153758Y520419D01*
X155917Y520419D01*
X156008Y520433D01*
X156098Y520441D01*
X156128Y520453D01*
X156160Y520458D01*
X156241Y520501D01*
X156325Y520537D01*
X156357Y520563D01*
X156378Y520574D01*
X156400Y520597D01*
X156456Y520642D01*
X171743Y535929D01*
X180256Y535929D01*
X180276Y535932D01*
X180295Y535930D01*
X180397Y535952D01*
X180499Y535968D01*
X180516Y535978D01*
X180536Y535982D01*
X180625Y536035D01*
X180716Y536084D01*
X180730Y536098D01*
X180747Y536108D01*
X180814Y536187D01*
X180886Y536262D01*
X180894Y536280D01*
X180907Y536295D01*
X180946Y536391D01*
X180989Y536485D01*
X180991Y536505D01*
X180999Y536523D01*
X181017Y536690D01*
X181017Y539504D01*
X181910Y540397D01*
X186174Y540397D01*
X187067Y539504D01*
X187067Y534693D01*
X187081Y534602D01*
X187089Y534512D01*
X187101Y534482D01*
X187106Y534450D01*
X187149Y534369D01*
X187185Y534285D01*
X187211Y534253D01*
X187222Y534232D01*
X187245Y534210D01*
X187290Y534154D01*
X187599Y533845D01*
X187599Y530899D01*
X187290Y530590D01*
X187237Y530516D01*
X187177Y530446D01*
X187165Y530416D01*
X187146Y530390D01*
X187119Y530303D01*
X187085Y530218D01*
X187081Y530177D01*
X187074Y530155D01*
X187075Y530123D01*
X187067Y530051D01*
X187067Y525240D01*
X186174Y524347D01*
X181910Y524347D01*
X181017Y525240D01*
X181017Y528054D01*
X181014Y528074D01*
X181016Y528093D01*
X180994Y528195D01*
X180978Y528297D01*
X180968Y528314D01*
X180964Y528334D01*
X180911Y528423D01*
X180862Y528514D01*
X180848Y528528D01*
X180838Y528545D01*
X180759Y528612D01*
X180684Y528684D01*
X180666Y528692D01*
X180651Y528705D01*
X180555Y528744D01*
X180461Y528787D01*
X180441Y528789D01*
X180423Y528797D01*
X180256Y528815D01*
X175005Y528815D01*
X174914Y528801D01*
X174824Y528793D01*
X174794Y528781D01*
X174762Y528776D01*
X174681Y528733D01*
X174597Y528697D01*
X174565Y528671D01*
X174544Y528660D01*
X174522Y528637D01*
X174466Y528592D01*
X161486Y515612D01*
X161433Y515538D01*
X161373Y515468D01*
X161361Y515438D01*
X161342Y515412D01*
X161315Y515325D01*
X161281Y515240D01*
X161277Y515199D01*
X161270Y515177D01*
X161271Y515145D01*
X161263Y515073D01*
X161263Y512914D01*
X158154Y509805D01*
X153758Y509805D01*
G37*
%LPD*%
%LPC*%
G36*
X212672Y699377D02*
X212672Y699377D01*
X211779Y700270D01*
X211779Y705081D01*
X211765Y705172D01*
X211757Y705262D01*
X211745Y705292D01*
X211740Y705324D01*
X211697Y705405D01*
X211661Y705489D01*
X211635Y705521D01*
X211624Y705542D01*
X211601Y705564D01*
X211556Y705620D01*
X211247Y705929D01*
X211247Y722445D01*
X211233Y722536D01*
X211225Y722626D01*
X211213Y722656D01*
X211208Y722688D01*
X211165Y722769D01*
X211129Y722853D01*
X211103Y722885D01*
X211092Y722906D01*
X211069Y722928D01*
X211024Y722984D01*
X207284Y726724D01*
X207210Y726777D01*
X207140Y726837D01*
X207110Y726849D01*
X207084Y726868D01*
X206997Y726895D01*
X206912Y726929D01*
X206871Y726933D01*
X206849Y726940D01*
X206817Y726939D01*
X206745Y726947D01*
X201875Y726947D01*
X201785Y726933D01*
X201694Y726925D01*
X201665Y726913D01*
X201633Y726908D01*
X201552Y726865D01*
X201468Y726829D01*
X201436Y726803D01*
X201415Y726792D01*
X201393Y726769D01*
X201337Y726724D01*
X199810Y725197D01*
X195414Y725197D01*
X192305Y728306D01*
X192305Y732702D01*
X195414Y735811D01*
X199810Y735811D01*
X201337Y734284D01*
X201411Y734231D01*
X201481Y734171D01*
X201511Y734159D01*
X201537Y734140D01*
X201624Y734113D01*
X201709Y734079D01*
X201750Y734075D01*
X201772Y734068D01*
X201804Y734069D01*
X201875Y734061D01*
X210007Y734061D01*
X218361Y725707D01*
X218361Y705929D01*
X218052Y705620D01*
X217999Y705546D01*
X217939Y705476D01*
X217927Y705446D01*
X217908Y705420D01*
X217881Y705333D01*
X217847Y705248D01*
X217843Y705207D01*
X217836Y705185D01*
X217837Y705153D01*
X217829Y705081D01*
X217829Y700270D01*
X216936Y699377D01*
X212672Y699377D01*
G37*
%LPD*%
%LPC*%
G36*
X293204Y633503D02*
X293204Y633503D01*
X290095Y636612D01*
X290095Y641008D01*
X293204Y644117D01*
X297600Y644117D01*
X299125Y642592D01*
X299199Y642539D01*
X299269Y642479D01*
X299299Y642467D01*
X299325Y642448D01*
X299412Y642421D01*
X299497Y642387D01*
X299538Y642383D01*
X299560Y642376D01*
X299592Y642377D01*
X299663Y642369D01*
X305439Y642369D01*
X305529Y642383D01*
X305620Y642391D01*
X305650Y642403D01*
X305682Y642408D01*
X305763Y642451D01*
X305846Y642487D01*
X305879Y642513D01*
X305899Y642524D01*
X305921Y642547D01*
X305977Y642592D01*
X306722Y643337D01*
X329986Y643337D01*
X330879Y642444D01*
X330879Y635180D01*
X329986Y634287D01*
X306722Y634287D01*
X305977Y635032D01*
X305903Y635085D01*
X305834Y635145D01*
X305804Y635157D01*
X305778Y635176D01*
X305691Y635203D01*
X305606Y635237D01*
X305565Y635241D01*
X305543Y635248D01*
X305510Y635247D01*
X305439Y635255D01*
X299667Y635255D01*
X299577Y635241D01*
X299486Y635233D01*
X299457Y635221D01*
X299425Y635216D01*
X299344Y635173D01*
X299260Y635137D01*
X299228Y635111D01*
X299207Y635100D01*
X299185Y635077D01*
X299129Y635032D01*
X297600Y633503D01*
X293204Y633503D01*
G37*
%LPD*%
%LPC*%
G36*
X122388Y615235D02*
X122388Y615235D01*
X121643Y615980D01*
X121569Y616033D01*
X121500Y616093D01*
X121470Y616105D01*
X121444Y616124D01*
X121357Y616151D01*
X121272Y616185D01*
X121231Y616189D01*
X121209Y616196D01*
X121176Y616195D01*
X121105Y616203D01*
X118669Y616203D01*
X116832Y618040D01*
X116758Y618093D01*
X116688Y618153D01*
X116658Y618165D01*
X116632Y618184D01*
X116545Y618211D01*
X116460Y618245D01*
X116419Y618249D01*
X116397Y618256D01*
X116365Y618255D01*
X116293Y618263D01*
X112864Y618263D01*
X109755Y621372D01*
X109755Y625768D01*
X112864Y628877D01*
X117260Y628877D01*
X120369Y625768D01*
X120369Y624879D01*
X120383Y624788D01*
X120391Y624698D01*
X120403Y624668D01*
X120408Y624636D01*
X120451Y624555D01*
X120487Y624471D01*
X120513Y624439D01*
X120524Y624418D01*
X120547Y624396D01*
X120592Y624340D01*
X120980Y623952D01*
X120996Y623941D01*
X121008Y623925D01*
X121095Y623869D01*
X121179Y623809D01*
X121198Y623803D01*
X121215Y623792D01*
X121316Y623767D01*
X121414Y623737D01*
X121434Y623737D01*
X121454Y623732D01*
X121557Y623740D01*
X121660Y623743D01*
X121679Y623750D01*
X121699Y623751D01*
X121794Y623792D01*
X121891Y623827D01*
X121907Y623840D01*
X121925Y623848D01*
X122056Y623952D01*
X122388Y624285D01*
X145652Y624285D01*
X146545Y623392D01*
X146545Y616128D01*
X145652Y615235D01*
X122388Y615235D01*
G37*
%LPD*%
%LPC*%
G36*
X232672Y699377D02*
X232672Y699377D01*
X231779Y700270D01*
X231779Y705081D01*
X231765Y705172D01*
X231757Y705262D01*
X231745Y705292D01*
X231740Y705324D01*
X231697Y705405D01*
X231661Y705489D01*
X231635Y705521D01*
X231624Y705542D01*
X231601Y705564D01*
X231556Y705620D01*
X231247Y705929D01*
X231247Y708875D01*
X231556Y709184D01*
X231609Y709258D01*
X231669Y709328D01*
X231681Y709358D01*
X231700Y709384D01*
X231727Y709471D01*
X231761Y709556D01*
X231765Y709597D01*
X231772Y709619D01*
X231771Y709651D01*
X231779Y709723D01*
X231779Y714534D01*
X232672Y715427D01*
X236936Y715427D01*
X237829Y714534D01*
X237829Y712216D01*
X237832Y712196D01*
X237830Y712177D01*
X237852Y712075D01*
X237868Y711973D01*
X237878Y711956D01*
X237882Y711936D01*
X237935Y711847D01*
X237984Y711756D01*
X237998Y711742D01*
X238008Y711725D01*
X238087Y711658D01*
X238162Y711586D01*
X238180Y711578D01*
X238195Y711565D01*
X238291Y711526D01*
X238385Y711483D01*
X238405Y711481D01*
X238423Y711473D01*
X238590Y711455D01*
X257865Y711455D01*
X257955Y711469D01*
X258046Y711477D01*
X258075Y711489D01*
X258107Y711494D01*
X258188Y711537D01*
X258272Y711573D01*
X258304Y711599D01*
X258325Y711610D01*
X258347Y711633D01*
X258403Y711678D01*
X259930Y713205D01*
X264326Y713205D01*
X267435Y710096D01*
X267435Y705700D01*
X264326Y702591D01*
X259930Y702591D01*
X258403Y704118D01*
X258329Y704171D01*
X258259Y704231D01*
X258229Y704243D01*
X258203Y704262D01*
X258116Y704289D01*
X258031Y704323D01*
X257990Y704327D01*
X257968Y704334D01*
X257936Y704333D01*
X257865Y704341D01*
X238590Y704341D01*
X238570Y704338D01*
X238551Y704340D01*
X238449Y704318D01*
X238347Y704302D01*
X238330Y704292D01*
X238310Y704288D01*
X238221Y704235D01*
X238130Y704186D01*
X238116Y704172D01*
X238099Y704162D01*
X238032Y704083D01*
X237960Y704008D01*
X237952Y703990D01*
X237939Y703975D01*
X237900Y703879D01*
X237857Y703785D01*
X237855Y703765D01*
X237847Y703747D01*
X237829Y703580D01*
X237829Y700270D01*
X236936Y699377D01*
X232672Y699377D01*
G37*
%LPD*%
%LPC*%
G36*
X297776Y620803D02*
X297776Y620803D01*
X294667Y623912D01*
X294667Y628308D01*
X297776Y631417D01*
X302172Y631417D01*
X303697Y629892D01*
X303771Y629839D01*
X303841Y629779D01*
X303871Y629767D01*
X303897Y629748D01*
X303984Y629721D01*
X304069Y629687D01*
X304110Y629683D01*
X304132Y629676D01*
X304164Y629677D01*
X304235Y629669D01*
X305439Y629669D01*
X305529Y629683D01*
X305620Y629691D01*
X305650Y629703D01*
X305682Y629708D01*
X305763Y629751D01*
X305846Y629787D01*
X305879Y629813D01*
X305899Y629824D01*
X305921Y629847D01*
X305977Y629892D01*
X306722Y630637D01*
X329986Y630637D01*
X330879Y629744D01*
X330879Y622480D01*
X329986Y621587D01*
X306722Y621587D01*
X305977Y622332D01*
X305903Y622385D01*
X305834Y622445D01*
X305804Y622457D01*
X305778Y622476D01*
X305691Y622503D01*
X305606Y622537D01*
X305565Y622541D01*
X305543Y622548D01*
X305510Y622547D01*
X305439Y622555D01*
X304239Y622555D01*
X304149Y622541D01*
X304058Y622533D01*
X304029Y622521D01*
X303997Y622516D01*
X303916Y622473D01*
X303832Y622437D01*
X303800Y622411D01*
X303779Y622400D01*
X303757Y622377D01*
X303755Y622375D01*
X303753Y622374D01*
X303752Y622373D01*
X303701Y622332D01*
X302172Y620803D01*
X297776Y620803D01*
G37*
%LPD*%
%LPC*%
G36*
X113626Y601753D02*
X113626Y601753D01*
X110517Y604862D01*
X110517Y609258D01*
X113626Y612367D01*
X118022Y612367D01*
X119549Y610840D01*
X119623Y610787D01*
X119693Y610727D01*
X119723Y610715D01*
X119749Y610696D01*
X119836Y610669D01*
X119921Y610635D01*
X119962Y610631D01*
X119984Y610624D01*
X120016Y610625D01*
X120087Y610617D01*
X121105Y610617D01*
X121195Y610631D01*
X121286Y610639D01*
X121316Y610651D01*
X121348Y610656D01*
X121429Y610699D01*
X121512Y610735D01*
X121545Y610761D01*
X121565Y610772D01*
X121587Y610795D01*
X121643Y610840D01*
X122388Y611585D01*
X145652Y611585D01*
X146545Y610692D01*
X146545Y603428D01*
X145652Y602535D01*
X122388Y602535D01*
X121643Y603280D01*
X121569Y603333D01*
X121500Y603393D01*
X121470Y603405D01*
X121444Y603424D01*
X121357Y603451D01*
X121272Y603485D01*
X121231Y603489D01*
X121209Y603496D01*
X121176Y603495D01*
X121105Y603503D01*
X120087Y603503D01*
X119997Y603489D01*
X119906Y603481D01*
X119877Y603469D01*
X119845Y603464D01*
X119764Y603421D01*
X119680Y603385D01*
X119648Y603359D01*
X119627Y603348D01*
X119622Y603343D01*
X119604Y603324D01*
X119549Y603280D01*
X118022Y601753D01*
X113626Y601753D01*
G37*
%LPD*%
%LPC*%
G36*
X187286Y504725D02*
X187286Y504725D01*
X184177Y507834D01*
X184177Y512230D01*
X187286Y515339D01*
X191682Y515339D01*
X191725Y515295D01*
X191742Y515284D01*
X191754Y515268D01*
X191841Y515212D01*
X191925Y515152D01*
X191944Y515146D01*
X191961Y515135D01*
X192061Y515110D01*
X192160Y515080D01*
X192180Y515080D01*
X192199Y515075D01*
X192302Y515083D01*
X192406Y515086D01*
X192425Y515093D01*
X192445Y515094D01*
X192540Y515135D01*
X192637Y515170D01*
X192653Y515183D01*
X192671Y515191D01*
X192802Y515295D01*
X200262Y522756D01*
X200315Y522830D01*
X200375Y522899D01*
X200387Y522929D01*
X200406Y522956D01*
X200433Y523042D01*
X200467Y523127D01*
X200471Y523168D01*
X200478Y523191D01*
X200477Y523223D01*
X200485Y523294D01*
X200485Y533845D01*
X200794Y534154D01*
X200848Y534228D01*
X200907Y534298D01*
X200919Y534328D01*
X200938Y534354D01*
X200965Y534441D01*
X200999Y534526D01*
X201003Y534567D01*
X201010Y534589D01*
X201009Y534621D01*
X201017Y534693D01*
X201017Y539504D01*
X201910Y540397D01*
X206174Y540397D01*
X207067Y539504D01*
X207067Y534693D01*
X207081Y534602D01*
X207089Y534512D01*
X207101Y534482D01*
X207106Y534450D01*
X207149Y534369D01*
X207185Y534285D01*
X207211Y534253D01*
X207222Y534232D01*
X207245Y534210D01*
X207290Y534154D01*
X207599Y533845D01*
X207599Y520032D01*
X194042Y506475D01*
X193747Y506475D01*
X193657Y506461D01*
X193566Y506453D01*
X193537Y506441D01*
X193505Y506436D01*
X193424Y506393D01*
X193340Y506357D01*
X193308Y506331D01*
X193287Y506320D01*
X193265Y506297D01*
X193209Y506252D01*
X191682Y504725D01*
X187286Y504725D01*
G37*
%LPD*%
%LPC*%
G36*
X299554Y607849D02*
X299554Y607849D01*
X296445Y610958D01*
X296445Y615354D01*
X299554Y618463D01*
X303950Y618463D01*
X305061Y617352D01*
X305077Y617340D01*
X305090Y617325D01*
X305177Y617269D01*
X305261Y617208D01*
X305280Y617202D01*
X305297Y617192D01*
X305397Y617166D01*
X305496Y617136D01*
X305516Y617136D01*
X305535Y617132D01*
X305638Y617140D01*
X305742Y617142D01*
X305761Y617149D01*
X305780Y617151D01*
X305875Y617191D01*
X305973Y617227D01*
X305988Y617239D01*
X306007Y617247D01*
X306138Y617352D01*
X306722Y617937D01*
X329986Y617937D01*
X330879Y617044D01*
X330879Y609780D01*
X329986Y608887D01*
X306722Y608887D01*
X306394Y609216D01*
X306377Y609228D01*
X306365Y609243D01*
X306278Y609299D01*
X306194Y609360D01*
X306175Y609366D01*
X306158Y609376D01*
X306058Y609402D01*
X305959Y609432D01*
X305939Y609432D01*
X305920Y609436D01*
X305817Y609428D01*
X305713Y609426D01*
X305694Y609419D01*
X305674Y609417D01*
X305579Y609377D01*
X305482Y609341D01*
X305466Y609329D01*
X305448Y609321D01*
X305317Y609216D01*
X303950Y607849D01*
X299554Y607849D01*
G37*
%LPD*%
%LPC*%
G36*
X222672Y699377D02*
X222672Y699377D01*
X221779Y700270D01*
X221779Y705081D01*
X221765Y705172D01*
X221757Y705262D01*
X221745Y705292D01*
X221740Y705324D01*
X221697Y705405D01*
X221661Y705489D01*
X221635Y705521D01*
X221624Y705542D01*
X221601Y705564D01*
X221556Y705620D01*
X221247Y705929D01*
X221247Y723863D01*
X230010Y732626D01*
X230078Y732655D01*
X230110Y732681D01*
X230131Y732692D01*
X230153Y732715D01*
X230209Y732760D01*
X231736Y734287D01*
X236132Y734287D01*
X239241Y731178D01*
X239241Y726782D01*
X236132Y723673D01*
X231433Y723673D01*
X231342Y723659D01*
X231252Y723651D01*
X231222Y723639D01*
X231190Y723634D01*
X231109Y723591D01*
X231025Y723555D01*
X230993Y723529D01*
X230972Y723518D01*
X230950Y723495D01*
X230894Y723450D01*
X228584Y721140D01*
X228531Y721066D01*
X228471Y720996D01*
X228459Y720966D01*
X228440Y720940D01*
X228413Y720853D01*
X228379Y720768D01*
X228375Y720727D01*
X228368Y720705D01*
X228369Y720673D01*
X228361Y720601D01*
X228361Y705929D01*
X228052Y705620D01*
X227999Y705546D01*
X227939Y705476D01*
X227927Y705446D01*
X227908Y705420D01*
X227881Y705333D01*
X227847Y705248D01*
X227843Y705207D01*
X227836Y705185D01*
X227837Y705153D01*
X227829Y705081D01*
X227829Y700270D01*
X226936Y699377D01*
X222672Y699377D01*
G37*
%LPD*%
%LPC*%
G36*
X122786Y544663D02*
X122786Y544663D01*
X121893Y545556D01*
X121893Y547370D01*
X121890Y547390D01*
X121892Y547409D01*
X121870Y547511D01*
X121854Y547613D01*
X121844Y547630D01*
X121840Y547650D01*
X121787Y547739D01*
X121738Y547830D01*
X121724Y547844D01*
X121714Y547861D01*
X121635Y547928D01*
X121560Y548000D01*
X121542Y548008D01*
X121527Y548021D01*
X121431Y548060D01*
X121337Y548103D01*
X121317Y548105D01*
X121299Y548113D01*
X121132Y548131D01*
X120595Y548131D01*
X120505Y548117D01*
X120414Y548109D01*
X120385Y548097D01*
X120353Y548092D01*
X120272Y548049D01*
X120188Y548013D01*
X120156Y547987D01*
X120135Y547976D01*
X120113Y547953D01*
X120057Y547908D01*
X119546Y547397D01*
X115150Y547397D01*
X112041Y550506D01*
X112041Y554902D01*
X115150Y558011D01*
X119546Y558011D01*
X120594Y556963D01*
X120652Y556921D01*
X120704Y556872D01*
X120751Y556850D01*
X120793Y556820D01*
X120862Y556798D01*
X120927Y556768D01*
X120979Y556763D01*
X121029Y556747D01*
X121100Y556749D01*
X121171Y556741D01*
X121222Y556752D01*
X121274Y556754D01*
X121342Y556778D01*
X121412Y556793D01*
X121457Y556820D01*
X121505Y556838D01*
X121561Y556883D01*
X121623Y556920D01*
X121657Y556959D01*
X121697Y556992D01*
X121736Y557052D01*
X121783Y557107D01*
X121802Y557155D01*
X121830Y557199D01*
X121848Y557268D01*
X121875Y557335D01*
X121883Y557406D01*
X121891Y557437D01*
X121889Y557460D01*
X121893Y557501D01*
X121893Y557820D01*
X122786Y558713D01*
X134050Y558713D01*
X134943Y557820D01*
X134943Y545556D01*
X134050Y544663D01*
X122786Y544663D01*
G37*
%LPD*%
%LPC*%
G36*
X282361Y693169D02*
X282361Y693169D01*
X282361Y700187D01*
X287172Y700187D01*
X287819Y700014D01*
X288398Y699679D01*
X288871Y699206D01*
X289206Y698627D01*
X289379Y697980D01*
X289379Y693169D01*
X282361Y693169D01*
G37*
%LPD*%
%LPC*%
G36*
X272297Y693169D02*
X272297Y693169D01*
X272297Y697980D01*
X272470Y698627D01*
X272805Y699206D01*
X273278Y699679D01*
X273857Y700014D01*
X274504Y700187D01*
X279315Y700187D01*
X279315Y693169D01*
X272297Y693169D01*
G37*
%LPD*%
%LPC*%
G36*
X282361Y683105D02*
X282361Y683105D01*
X282361Y690123D01*
X289379Y690123D01*
X289379Y685312D01*
X289206Y684665D01*
X288871Y684086D01*
X288398Y683613D01*
X287819Y683278D01*
X287172Y683105D01*
X282361Y683105D01*
G37*
%LPD*%
%LPC*%
G36*
X293459Y543397D02*
X293459Y543397D01*
X293459Y550415D01*
X300477Y550415D01*
X300477Y545604D01*
X300304Y544957D01*
X299969Y544378D01*
X299496Y543905D01*
X298917Y543570D01*
X298270Y543397D01*
X293459Y543397D01*
G37*
%LPD*%
%LPC*%
G36*
X274504Y683105D02*
X274504Y683105D01*
X273857Y683278D01*
X273278Y683613D01*
X272805Y684086D01*
X272470Y684665D01*
X272297Y685312D01*
X272297Y690123D01*
X279315Y690123D01*
X279315Y683105D01*
X274504Y683105D01*
G37*
%LPD*%
%LPC*%
G36*
X285602Y543397D02*
X285602Y543397D01*
X284955Y543570D01*
X284376Y543905D01*
X283903Y544378D01*
X283568Y544957D01*
X283395Y545604D01*
X283395Y550415D01*
X290413Y550415D01*
X290413Y543397D01*
X285602Y543397D01*
G37*
%LPD*%
%LPC*%
G36*
X319853Y653011D02*
X319853Y653011D01*
X319853Y657053D01*
X329688Y657053D01*
X330335Y656880D01*
X330914Y656545D01*
X331387Y656072D01*
X331722Y655493D01*
X331895Y654846D01*
X331895Y653011D01*
X319853Y653011D01*
G37*
%LPD*%
%LPC*%
G36*
X187519Y621259D02*
X187519Y621259D01*
X187519Y625301D01*
X197354Y625301D01*
X198001Y625128D01*
X198580Y624793D01*
X199053Y624320D01*
X199388Y623741D01*
X199561Y623094D01*
X199561Y621259D01*
X187519Y621259D01*
G37*
%LPD*%
%LPC*%
G36*
X304813Y653011D02*
X304813Y653011D01*
X304813Y654846D01*
X304986Y655493D01*
X305321Y656072D01*
X305794Y656545D01*
X306373Y656880D01*
X307020Y657053D01*
X316855Y657053D01*
X316855Y653011D01*
X304813Y653011D01*
G37*
%LPD*%
%LPC*%
G36*
X172479Y621259D02*
X172479Y621259D01*
X172479Y623094D01*
X172652Y623741D01*
X172987Y624320D01*
X173460Y624793D01*
X174039Y625128D01*
X174686Y625301D01*
X184521Y625301D01*
X184521Y621259D01*
X172479Y621259D01*
G37*
%LPD*%
%LPC*%
G36*
X174686Y614219D02*
X174686Y614219D01*
X174039Y614392D01*
X173460Y614727D01*
X172987Y615200D01*
X172652Y615779D01*
X172479Y616426D01*
X172479Y618261D01*
X184521Y618261D01*
X184521Y614219D01*
X174686Y614219D01*
G37*
%LPD*%
%LPC*%
G36*
X307020Y645971D02*
X307020Y645971D01*
X306373Y646144D01*
X305794Y646479D01*
X305321Y646952D01*
X304986Y647531D01*
X304813Y648178D01*
X304813Y650013D01*
X316855Y650013D01*
X316855Y645971D01*
X307020Y645971D01*
G37*
%LPD*%
%LPC*%
G36*
X187519Y614219D02*
X187519Y614219D01*
X187519Y618261D01*
X199561Y618261D01*
X199561Y616426D01*
X199388Y615779D01*
X199053Y615200D01*
X198580Y614727D01*
X198001Y614392D01*
X197354Y614219D01*
X187519Y614219D01*
G37*
%LPD*%
%LPC*%
G36*
X319853Y645971D02*
X319853Y645971D01*
X319853Y650013D01*
X331895Y650013D01*
X331895Y648178D01*
X331722Y647531D01*
X331387Y646952D01*
X330914Y646479D01*
X330335Y646144D01*
X329688Y645971D01*
X319853Y645971D01*
G37*
%LPD*%
%LPC*%
G36*
X99309Y613799D02*
X99309Y613799D01*
X99309Y620317D01*
X103120Y620317D01*
X103767Y620144D01*
X104346Y619809D01*
X104819Y619336D01*
X105154Y618757D01*
X105327Y618110D01*
X105327Y613799D01*
X99309Y613799D01*
G37*
%LPD*%
%LPC*%
G36*
X99819Y645295D02*
X99819Y645295D01*
X99819Y651813D01*
X103630Y651813D01*
X104277Y651640D01*
X104856Y651305D01*
X105329Y650832D01*
X105664Y650253D01*
X105837Y649606D01*
X105837Y645295D01*
X99819Y645295D01*
G37*
%LPD*%
%LPC*%
G36*
X90245Y613799D02*
X90245Y613799D01*
X90245Y618110D01*
X90418Y618757D01*
X90753Y619336D01*
X91226Y619809D01*
X91805Y620144D01*
X92452Y620317D01*
X96263Y620317D01*
X96263Y613799D01*
X90245Y613799D01*
G37*
%LPD*%
%LPC*%
G36*
X90755Y645295D02*
X90755Y645295D01*
X90755Y649606D01*
X90928Y650253D01*
X91263Y650832D01*
X91736Y651305D01*
X92315Y651640D01*
X92962Y651813D01*
X96773Y651813D01*
X96773Y645295D01*
X90755Y645295D01*
G37*
%LPD*%
%LPC*%
G36*
X195565Y708163D02*
X195565Y708163D01*
X195565Y716443D01*
X196639Y716443D01*
X197285Y716270D01*
X197864Y715935D01*
X198337Y715462D01*
X198672Y714883D01*
X198845Y714236D01*
X198845Y708163D01*
X195565Y708163D01*
G37*
%LPD*%
%LPC*%
G36*
X194803Y533133D02*
X194803Y533133D01*
X194803Y541413D01*
X195877Y541413D01*
X196523Y541240D01*
X197102Y540905D01*
X197575Y540432D01*
X197910Y539853D01*
X198083Y539206D01*
X198083Y533133D01*
X194803Y533133D01*
G37*
%LPD*%
%LPC*%
G36*
X194803Y523331D02*
X194803Y523331D01*
X194803Y531611D01*
X198083Y531611D01*
X198083Y525538D01*
X197910Y524891D01*
X197575Y524312D01*
X197102Y523839D01*
X196523Y523504D01*
X195876Y523331D01*
X194803Y523331D01*
G37*
%LPD*%
%LPC*%
G36*
X190763Y708163D02*
X190763Y708163D01*
X190763Y714236D01*
X190936Y714883D01*
X191271Y715462D01*
X191744Y715935D01*
X192323Y716270D01*
X192970Y716443D01*
X194043Y716443D01*
X194043Y708163D01*
X190763Y708163D01*
G37*
%LPD*%
%LPC*%
G36*
X190001Y533133D02*
X190001Y533133D01*
X190001Y539206D01*
X190174Y539853D01*
X190509Y540432D01*
X190982Y540905D01*
X191561Y541240D01*
X192208Y541413D01*
X193281Y541413D01*
X193281Y533133D01*
X190001Y533133D01*
G37*
%LPD*%
%LPC*%
G36*
X192208Y523331D02*
X192208Y523331D01*
X191561Y523504D01*
X190982Y523839D01*
X190509Y524312D01*
X190174Y524891D01*
X190001Y525538D01*
X190001Y531611D01*
X193281Y531611D01*
X193281Y523331D01*
X192208Y523331D01*
G37*
%LPD*%
%LPC*%
G36*
X280837Y691645D02*
X280837Y691645D01*
X280837Y691647D01*
X280839Y691647D01*
X280839Y691645D01*
X280837Y691645D01*
G37*
%LPD*%
D10*
X211580Y583320D03*
X211580Y600320D03*
X235970Y641990D03*
X235970Y658990D03*
D11*
X116470Y681230D03*
X133470Y681230D03*
X202320Y681480D03*
X219320Y681480D03*
D10*
X98296Y660772D03*
X98296Y643772D03*
D12*
X134020Y645160D03*
X186020Y645160D03*
X134020Y657860D03*
X134020Y632460D03*
X134020Y619760D03*
X186020Y657860D03*
X186020Y632460D03*
X186020Y619760D03*
X134020Y594360D03*
X186020Y594360D03*
X134020Y607060D03*
X134020Y581660D03*
X186020Y607060D03*
X186020Y581660D03*
X266354Y638812D03*
X318354Y638812D03*
X266354Y651512D03*
X266354Y626112D03*
X266354Y613412D03*
X318354Y651512D03*
X318354Y626112D03*
X318354Y613412D03*
D10*
X182258Y551948D03*
X199258Y551948D03*
D11*
X209800Y659240D03*
X209800Y642240D03*
X236730Y628260D03*
X236730Y611260D03*
D10*
X254878Y681488D03*
X237878Y681488D03*
X179700Y681490D03*
X162700Y681490D03*
D11*
X101860Y581030D03*
X101860Y598030D03*
D10*
X145418Y551688D03*
X128418Y551688D03*
X300080Y673354D03*
X283080Y673354D03*
X97786Y629276D03*
X97786Y612276D03*
D13*
X280838Y691646D03*
X301838Y691646D03*
D10*
X249802Y551946D03*
X232802Y551946D03*
D13*
X291936Y551938D03*
X270936Y551938D03*
D14*
X265680Y583688D03*
X290574Y583946D03*
X315974Y584202D03*
D15*
X210820Y619760D03*
D16*
X184042Y532372D03*
X194042Y532372D03*
X204042Y532372D03*
X214042Y532372D03*
X224042Y532372D03*
X234042Y532372D03*
X234804Y707402D03*
X224804Y707402D03*
X214804Y707402D03*
X204804Y707402D03*
X194804Y707402D03*
X184804Y707402D03*
D17*
X134020Y619760D02*
X120142Y619760D01*
X116332Y623570D01*
X115062Y623570D01*
D18*
X115062Y623570D03*
D17*
X248298Y651512D02*
X266354Y651512D01*
X248298Y651512D02*
X248158Y651652D01*
D18*
X248158Y651652D03*
D17*
X232802Y551946D02*
X224794Y551946D01*
X218694Y545846D01*
D18*
X218694Y545846D03*
D17*
X97786Y629276D02*
X87766Y629276D01*
X87376Y629666D01*
D18*
X87376Y629666D03*
X155956Y515112D03*
D17*
X173216Y532372D01*
X184042Y532372D01*
X184804Y707402D02*
X170930Y707402D01*
X161544Y716788D01*
D18*
X161544Y716788D03*
D17*
X186020Y632460D02*
X217678Y632460D01*
X223520Y626618D01*
X223520Y608076D01*
X215764Y600320D02*
X211580Y600320D01*
X215764Y600320D02*
X223520Y608076D01*
X208794Y551948D02*
X199258Y551948D01*
X208794Y551948D02*
X212344Y555498D01*
D18*
X212344Y555498D03*
X229108Y582168D03*
D17*
X215274Y600320D02*
X211580Y600320D01*
X229108Y586486D02*
X229108Y582168D01*
X229108Y586486D02*
X215274Y600320D01*
D19*
X202320Y681480D02*
X202312Y681486D01*
D17*
X179700Y681490D01*
X237878Y681488D02*
X237878Y686936D01*
X233934Y690880D02*
X206756Y690880D01*
X202312Y686436D01*
X202312Y681486D01*
X233934Y690880D02*
X237878Y686936D01*
X105526Y594360D02*
X101860Y598030D01*
X105526Y594360D02*
X134020Y594360D01*
X128418Y551688D02*
X118364Y551688D01*
X117348Y552704D01*
D18*
X117348Y552704D03*
X89408Y596392D03*
D17*
X91046Y598030D02*
X101860Y598030D01*
X91046Y598030D02*
X89408Y596392D01*
X116470Y681230D02*
X116470Y689240D01*
X120650Y693420D01*
X159766Y693420D01*
X162700Y690486D02*
X162700Y681490D01*
X162700Y690486D02*
X159766Y693420D01*
X116470Y681230D02*
X109222Y681230D01*
X101600Y673608D01*
D18*
X101600Y673608D03*
X115824Y607060D03*
D17*
X134020Y607060D01*
D19*
X186020Y594360D02*
X186020Y581660D01*
X209916Y581660D01*
X211580Y583320D01*
D17*
X208416Y657860D02*
X186020Y657860D01*
X208416Y657860D02*
X209800Y659240D01*
X223520Y659244D01*
X235718Y659244D01*
X235970Y658990D01*
X245986Y658990D01*
X254878Y667882D02*
X254878Y681488D01*
X254878Y667882D02*
X245986Y658990D01*
X198628Y645160D02*
X186020Y645160D01*
X198628Y645160D02*
X202184Y641604D01*
X209160Y641604D01*
X209800Y642240D01*
X235718Y642244D01*
X235970Y641990D01*
X236726Y641236D01*
X236730Y628260D01*
X144180Y564388D02*
X134020Y574548D01*
X134020Y581660D01*
X250190Y564388D02*
X251968Y566166D01*
X250190Y564388D02*
X144180Y564388D01*
D18*
X251968Y566166D03*
X249936Y626110D03*
D17*
X266352Y626110D01*
X266354Y626112D01*
X133390Y581030D02*
X101860Y581030D01*
X133390Y581030D02*
X134020Y581660D01*
D18*
X197612Y730504D03*
X208026Y510540D03*
D17*
X236730Y611260D02*
X245990Y611260D01*
X250952Y606298D01*
X250952Y577596D01*
X245618Y572262D02*
X209804Y572262D01*
D18*
X209804Y572262D03*
D17*
X245618Y572262D02*
X250952Y577596D01*
X210312Y510540D02*
X208026Y510540D01*
X210312Y510540D02*
X214122Y514350D01*
X214122Y532292D01*
X214042Y532372D01*
X208534Y730504D02*
X197612Y730504D01*
X214804Y724234D02*
X214804Y707402D01*
X214804Y724234D02*
X208534Y730504D01*
D18*
X262128Y707898D03*
X283718Y526288D03*
X301752Y613156D03*
D17*
X318098Y613156D01*
X318354Y613412D01*
X234042Y532372D02*
X234042Y517290D01*
X237490Y513842D02*
X271272Y513842D01*
X237490Y513842D02*
X234042Y517290D01*
X234804Y707402D02*
X235300Y707898D01*
X262128Y707898D01*
X283718Y526288D02*
X271272Y513842D01*
X162052Y632206D02*
X134274Y632206D01*
X134020Y632460D01*
X162052Y632206D02*
X163830Y633984D01*
D18*
X163830Y633984D03*
X184658Y695198D03*
D17*
X186178Y696718D01*
X201676Y696718D01*
X204042Y532372D02*
X204042Y521506D01*
X192569Y510032D02*
X189484Y510032D01*
D18*
X189484Y510032D03*
D17*
X192569Y510032D02*
X204042Y521506D01*
X201676Y696718D02*
X204804Y699846D01*
X204804Y707402D01*
X295404Y638812D02*
X318354Y638812D01*
X295404Y638812D02*
X295402Y638810D01*
D18*
X295402Y638810D03*
X291592Y563880D03*
D17*
X291592Y582928D01*
X290574Y583946D01*
X299976Y626112D02*
X318354Y626112D01*
X299976Y626112D02*
X299974Y626110D01*
D18*
X299974Y626110D03*
X316230Y563880D03*
D17*
X315974Y564136D01*
X315974Y584202D01*
D18*
X224028Y510286D03*
D17*
X224028Y532358D01*
X224042Y532372D01*
D18*
X233934Y728980D03*
D17*
X231394Y728980D01*
X224804Y722390D01*
X224804Y707402D01*
X300080Y689888D02*
X300080Y673354D01*
X300080Y689888D02*
X301838Y691646D01*
X270932Y551942D02*
X270936Y551938D01*
X270932Y551942D02*
X249802Y551946D01*
X134020Y657860D02*
X134020Y659638D01*
X131226Y662432D01*
X99956Y662432D01*
X98296Y660772D01*
X134020Y657860D02*
X134020Y645160D01*
X134020Y657860D02*
X134020Y669036D01*
X134020Y680680D01*
X133470Y681230D01*
X134020Y669036D02*
X214376Y669036D01*
X219320Y673980D02*
X219320Y681480D01*
X219320Y673980D02*
X214376Y669036D01*
X170688Y551942D02*
X161290Y551942D01*
X145672Y551942D01*
X145418Y551688D01*
X170688Y551942D02*
X182252Y551942D01*
X182258Y551948D01*
X152908Y645160D02*
X134020Y645160D01*
X152908Y645160D02*
X153416Y645668D01*
D18*
X153416Y645668D03*
X170434Y544546D03*
D17*
X170434Y551688D01*
X170688Y551942D01*
X266354Y638812D02*
X281180Y638812D01*
X283080Y640712D02*
X283080Y673354D01*
X283080Y640712D02*
X281180Y638812D01*
X198120Y607060D02*
X186020Y607060D01*
X198120Y607060D02*
X210820Y619760D01*
X265680Y612738D02*
X265680Y583688D01*
X265680Y612738D02*
X266354Y613412D01*
M02*
