G04 EAGLE Gerber RS-274X export*
G75*
%MOMM*%
%FSLAX34Y34*%
%LPD*%
%INSoldermask Top*%
%IPPOS*%
%AMOC8*
5,1,8,0,0,1.08239X$1,22.5*%
G01*
%ADD10R,1.203200X1.303200*%
%ADD11R,1.303200X1.203200*%
%ADD12R,2.403200X0.803200*%
%ADD13R,1.403200X1.403200*%
%ADD14R,1.473200X2.743200*%
%ADD15P,1.951982X8X22.500000*%
%ADD16R,0.400000X1.400000*%
%ADD17C,0.959600*%


D10*
X211580Y583320D03*
X211580Y600320D03*
X235970Y641990D03*
X235970Y658990D03*
D11*
X116470Y681230D03*
X133470Y681230D03*
X202320Y681480D03*
X219320Y681480D03*
D10*
X98296Y660772D03*
X98296Y643772D03*
D12*
X134020Y645160D03*
X186020Y645160D03*
X134020Y657860D03*
X134020Y632460D03*
X134020Y619760D03*
X186020Y657860D03*
X186020Y632460D03*
X186020Y619760D03*
X134020Y594360D03*
X186020Y594360D03*
X134020Y607060D03*
X134020Y581660D03*
X186020Y607060D03*
X186020Y581660D03*
X266354Y638812D03*
X318354Y638812D03*
X266354Y651512D03*
X266354Y626112D03*
X266354Y613412D03*
X318354Y651512D03*
X318354Y626112D03*
X318354Y613412D03*
D10*
X182258Y551948D03*
X199258Y551948D03*
D11*
X209800Y659240D03*
X209800Y642240D03*
X236730Y628260D03*
X236730Y611260D03*
D10*
X254878Y681488D03*
X237878Y681488D03*
X179700Y681490D03*
X162700Y681490D03*
D11*
X101860Y581030D03*
X101860Y598030D03*
D10*
X145418Y551688D03*
X128418Y551688D03*
X300080Y673354D03*
X283080Y673354D03*
X97786Y629276D03*
X97786Y612276D03*
D13*
X280838Y691646D03*
X301838Y691646D03*
D10*
X249802Y551946D03*
X232802Y551946D03*
D13*
X291936Y551938D03*
X270936Y551938D03*
D14*
X265680Y583688D03*
X290574Y583946D03*
X315974Y584202D03*
D15*
X210820Y619760D03*
D16*
X184042Y532372D03*
X194042Y532372D03*
X204042Y532372D03*
X214042Y532372D03*
X224042Y532372D03*
X234042Y532372D03*
X234804Y707402D03*
X224804Y707402D03*
X214804Y707402D03*
X204804Y707402D03*
X194804Y707402D03*
X184804Y707402D03*
D17*
X115062Y623570D03*
X248158Y651652D03*
X218694Y545846D03*
X87376Y629666D03*
X155956Y515112D03*
X161544Y716788D03*
X212344Y555498D03*
X229108Y582168D03*
X117348Y552704D03*
X89408Y596392D03*
X101600Y673608D03*
X115824Y607060D03*
X251968Y566166D03*
X249936Y626110D03*
X197612Y730504D03*
X208026Y510540D03*
X209804Y572262D03*
X262128Y707898D03*
X283718Y526288D03*
X301752Y613156D03*
X163830Y633984D03*
X184658Y695198D03*
X189484Y510032D03*
X295402Y638810D03*
X291592Y563880D03*
X299974Y626110D03*
X316230Y563880D03*
X224028Y510286D03*
X233934Y728980D03*
X153416Y645668D03*
X170434Y544546D03*
M02*
