M48
;GenerationSoftware,Autodesk,EAGLE,9.6.2*%
;CreationDate,2024-09-26T23:34:14Z*%
FMAT,2
ICI,OFF
METRIC,TZ,000.000
T2C0.350
T1C0.914
%
G90
M71
T1
X21082Y61976
T2
X11506Y62357
X24816Y65165
X21869Y54585
X8738Y62967
X15596Y51511
X16154Y71679
X21234Y55550
X22911Y58217
X11735Y55270
X8941Y59639
X10160Y67361
X11582Y60706
X25197Y56617
X24994Y62611
X19761Y73050
X20803Y51054
X20980Y57226
X26213Y70790
X28372Y52629
X30175Y61316
X16383Y63398
X18466Y69520
X18948Y51003
X29540Y63881
X29159Y56388
X29997Y62611
X31623Y56388
X22403Y51029
X23393Y72898
X15342Y64567
X17043Y54455
M30