G04 EAGLE Gerber RS-274X export*
G75*
%MOMM*%
%FSLAX34Y34*%
%LPD*%
%IN*%
%IPPOS*%
%AMOC8*
5,1,8,0,0,1.08239X$1,22.5*%
G01*
%ADD10C,0.254000*%


D10*
X350520Y618046D02*
X350520Y621474D01*
X350436Y624902D01*
X350268Y628327D01*
X350015Y631747D01*
X349679Y635159D01*
X349260Y638562D01*
X348756Y641954D01*
X348170Y645333D01*
X347501Y648696D01*
X346750Y652041D01*
X345917Y655367D01*
X345002Y658672D01*
X344007Y661953D01*
X342931Y665209D01*
X341776Y668438D01*
X340542Y671637D01*
X339230Y674805D01*
X337840Y677940D01*
X336374Y681039D01*
X334833Y684102D01*
X333216Y687126D01*
X331526Y690110D01*
X329763Y693051D01*
X327929Y695948D01*
X326024Y698799D01*
X324049Y701602D01*
X322007Y704356D01*
X319897Y707059D01*
X317722Y709710D01*
X315482Y712306D01*
X313180Y714847D01*
X310815Y717331D01*
X308391Y719755D01*
X305907Y722120D01*
X303366Y724422D01*
X300770Y726662D01*
X298119Y728837D01*
X295416Y730947D01*
X292662Y732989D01*
X289859Y734964D01*
X287008Y736869D01*
X284111Y738703D01*
X281170Y740466D01*
X278186Y742156D01*
X275162Y743773D01*
X272099Y745314D01*
X269000Y746780D01*
X265865Y748170D01*
X262697Y749482D01*
X259498Y750716D01*
X256269Y751871D01*
X253013Y752947D01*
X249732Y753942D01*
X246427Y754857D01*
X243101Y755690D01*
X239756Y756441D01*
X236393Y757110D01*
X233014Y757696D01*
X229622Y758200D01*
X226219Y758619D01*
X222807Y758955D01*
X219387Y759208D01*
X215962Y759376D01*
X212534Y759460D01*
X209106Y759460D01*
X205678Y759376D01*
X202253Y759208D01*
X198833Y758955D01*
X195421Y758619D01*
X192018Y758200D01*
X188626Y757696D01*
X185247Y757110D01*
X181884Y756441D01*
X178539Y755690D01*
X175213Y754857D01*
X171908Y753942D01*
X168627Y752947D01*
X165371Y751871D01*
X162142Y750716D01*
X158943Y749482D01*
X155775Y748170D01*
X152640Y746780D01*
X149541Y745314D01*
X146478Y743773D01*
X143454Y742156D01*
X140470Y740466D01*
X137529Y738703D01*
X134632Y736869D01*
X131781Y734964D01*
X128978Y732989D01*
X126224Y730947D01*
X123521Y728837D01*
X120870Y726662D01*
X118274Y724422D01*
X115733Y722120D01*
X113250Y719755D01*
X110825Y717331D01*
X108461Y714847D01*
X106158Y712306D01*
X103918Y709710D01*
X101743Y707059D01*
X99633Y704356D01*
X97591Y701602D01*
X95616Y698799D01*
X93711Y695948D01*
X91877Y693051D01*
X90114Y690110D01*
X88424Y687126D01*
X86807Y684102D01*
X85266Y681039D01*
X83800Y677940D01*
X82410Y674805D01*
X81098Y671637D01*
X79864Y668438D01*
X78709Y665209D01*
X77633Y661953D01*
X76638Y658672D01*
X75723Y655367D01*
X74890Y652041D01*
X74139Y648696D01*
X73470Y645333D01*
X72884Y641954D01*
X72380Y638562D01*
X71961Y635159D01*
X71625Y631747D01*
X71372Y628327D01*
X71204Y624902D01*
X71120Y621474D01*
X71120Y618046D01*
X71204Y614618D01*
X71372Y611193D01*
X71625Y607773D01*
X71961Y604361D01*
X72380Y600958D01*
X72884Y597566D01*
X73470Y594187D01*
X74139Y590824D01*
X74890Y587479D01*
X75723Y584153D01*
X76638Y580848D01*
X77633Y577567D01*
X78709Y574311D01*
X79864Y571082D01*
X81098Y567883D01*
X82410Y564715D01*
X83800Y561580D01*
X85266Y558481D01*
X86807Y555418D01*
X88424Y552394D01*
X90114Y549410D01*
X91877Y546469D01*
X93711Y543572D01*
X95616Y540721D01*
X97591Y537918D01*
X99633Y535164D01*
X101743Y532461D01*
X103918Y529810D01*
X106158Y527214D01*
X108461Y524673D01*
X110825Y522190D01*
X113250Y519765D01*
X115733Y517401D01*
X118274Y515098D01*
X120870Y512858D01*
X123521Y510683D01*
X126224Y508573D01*
X128978Y506531D01*
X131781Y504556D01*
X134632Y502651D01*
X137529Y500817D01*
X140470Y499054D01*
X143454Y497364D01*
X146478Y495747D01*
X149541Y494206D01*
X152640Y492740D01*
X155775Y491350D01*
X158943Y490038D01*
X162142Y488804D01*
X165371Y487649D01*
X168627Y486573D01*
X171908Y485578D01*
X175213Y484663D01*
X178539Y483830D01*
X181884Y483079D01*
X185247Y482410D01*
X188626Y481824D01*
X192018Y481320D01*
X195421Y480901D01*
X198833Y480565D01*
X202253Y480312D01*
X205678Y480144D01*
X209106Y480060D01*
X212534Y480060D01*
X215962Y480144D01*
X219387Y480312D01*
X222807Y480565D01*
X226219Y480901D01*
X229622Y481320D01*
X233014Y481824D01*
X236393Y482410D01*
X239756Y483079D01*
X243101Y483830D01*
X246427Y484663D01*
X249732Y485578D01*
X253013Y486573D01*
X256269Y487649D01*
X259498Y488804D01*
X262697Y490038D01*
X265865Y491350D01*
X269000Y492740D01*
X272099Y494206D01*
X275162Y495747D01*
X278186Y497364D01*
X281170Y499054D01*
X284111Y500817D01*
X287008Y502651D01*
X289859Y504556D01*
X292662Y506531D01*
X295416Y508573D01*
X298119Y510683D01*
X300770Y512858D01*
X303366Y515098D01*
X305907Y517401D01*
X308391Y519765D01*
X310815Y522190D01*
X313180Y524673D01*
X315482Y527214D01*
X317722Y529810D01*
X319897Y532461D01*
X322007Y535164D01*
X324049Y537918D01*
X326024Y540721D01*
X327929Y543572D01*
X329763Y546469D01*
X331526Y549410D01*
X333216Y552394D01*
X334833Y555418D01*
X336374Y558481D01*
X337840Y561580D01*
X339230Y564715D01*
X340542Y567883D01*
X341776Y571082D01*
X342931Y574311D01*
X344007Y577567D01*
X345002Y580848D01*
X345917Y584153D01*
X346750Y587479D01*
X347501Y590824D01*
X348170Y594187D01*
X348756Y597566D01*
X349260Y600958D01*
X349679Y604361D01*
X350015Y607773D01*
X350268Y611193D01*
X350436Y614618D01*
X350520Y618046D01*
M02*
